<svg xmlns="http://www.w3.org/2000/svg" x="0px" y="0px"
width="100" height="100"
viewBox="0 0 50 50"
style=" fill:#000000;"><path d="M 25 12 C 11.670079 12 1.2402344 24.349609 1.2402344 24.349609 A 1.0001 1.0001 0 0 0 1.2402344 25.650391 C 1.2402344 25.650391 11.670079 38 25 38 C 38.329921 38 48.759766 25.650391 48.759766 25.650391 A 1.0001 1.0001 0 0 0 48.759766 24.349609 C 48.759766 24.349609 38.329921 12 25 12 z M 25 14 C 27.666112 14 30.212194 14.553163 32.568359 15.404297 C 34.139995 17.208282 35 19.393698 35 22 C 35 27.564481 30.564481 32 25 32 C 19.435519 32 15 27.564481 15 22 C 15 19.529654 15.953508 17.215563 17.443359 15.400391 C 19.796306 14.551646 22.338246 14 25 14 z M 14.193359 16.810547 C 13.442083 18.392394 13 20.15076 13 22 C 13 28.635519 18.364481 34 25 34 C 31.635519 34 37 28.635519 37 22 C 37 20.133827 36.599868 18.400669 35.869141 16.841797 C 41.528438 19.719577 45.586723 23.897166 46.605469 25 C 45.01112 26.725948 35.992156 36 25 36 C 14.007844 36 4.9888798 26.725948 3.3945312 25 C 4.4169897 23.893147 8.501685 19.689196 14.193359 16.810547 z M 25 17 A 5 5 0 0 0 25 27 A 5 5 0 0 0 25 17 z"></path></svg>