<?xml version="1.0" standalone="no"?>
<!DOCTYPE svg PUBLIC "-//W3C//DTD SVG 20010904//EN"
 "http://www.w3.org/TR/2001/REC-SVG-20010904/DTD/svg10.dtd">
<svg version="1.0" xmlns="http://www.w3.org/2000/svg"
 width="1280.000000pt" height="1206.000000pt" viewBox="0 0 1280.000000 1206.000000"
 preserveAspectRatio="xMidYMid meet">
<g transform="translate(0.000000,1206.000000) scale(0.100000,-0.100000)"
fill="#000000" stroke="none">
<path d="M845 12049 c-39 -22 -235 -224 -235 -242 0 -10 -13 -35 -29 -55 -42
-53 -96 -157 -121 -232 -37 -109 -51 -217 -56 -425 -3 -110 -10 -213 -16 -230
-6 -16 -14 -120 -18 -230 -7 -165 -5 -204 6 -222 14 -22 13 -23 -26 -23 -22 0
-40 -4 -40 -8 0 -5 13 -21 30 -37 28 -27 45 -24 18 3 -21 21 2 27 34 9 51 -30
63 -7 21 43 l-26 32 7 190 c4 105 11 198 16 207 7 13 15 2 39 -49 35 -77 40
-69 9 15 -58 162 -23 611 63 790 48 102 162 259 278 384 l50 54 89 -6 c104 -6
192 -28 278 -67 57 -25 69 -37 135 -127 278 -378 363 -492 367 -488 8 8 -127
215 -238 365 -59 80 -114 159 -123 176 -16 31 -80 94 -115 113 -76 41 -356 83
-397 60z"/>
<path d="M3927 11821 c-143 -75 -346 -224 -513 -376 -84 -77 -354 -375 -354
-392 0 -5 -40 -44 -90 -87 -49 -43 -90 -82 -90 -87 0 -14 26 -10 40 6 7 8 19
15 27 15 12 0 13 -3 3 -15 -6 -8 -10 -21 -8 -30 2 -9 48 45 114 132 219 289
414 481 725 713 140 105 199 130 304 130 84 0 84 -1 59 -67 -18 -46 -11 -70
10 -40 19 25 27 21 16 -8 -6 -17 -6 -27 2 -31 7 -4 13 -3 15 3 2 6 11 19 19
29 14 17 15 15 9 -31 -4 -27 -15 -75 -25 -106 -12 -39 -14 -61 -7 -68 27 -27
-20 -493 -85 -831 l-31 -165 -49 -43 c-47 -43 -62 -70 -33 -58 12 4 14 0 8
-21 l-6 -27 26 17 c27 17 27 17 27 -8 0 -14 5 -34 12 -45 21 -33 -4 -202 -45
-304 -28 -72 -31 -84 -15 -69 27 24 62 96 83 168 14 48 17 83 12 179 -5 111
-3 131 28 265 67 294 95 505 106 801 4 129 11 256 15 282 5 40 2 55 -20 94
-14 26 -26 59 -26 75 l0 29 -104 0 c-96 0 -108 -2 -159 -29z"/>
<path d="M1320 11245 c0 -20 157 -182 167 -172 4 4 -15 30 -43 58 -48 51 -48
51 -19 45 l30 -6 -29 24 c-15 13 -46 33 -67 45 -34 20 -39 20 -39 6z"/>
<path d="M1839 11170 c52 -81 83 -161 88 -228 3 -37 7 -73 9 -81 7 -22 34 7
34 36 0 23 2 24 17 12 15 -13 16 -11 8 16 -4 17 -13 53 -19 82 -11 52 -26 80
-26 50 0 -9 -4 -17 -10 -17 -5 0 -10 5 -10 11 0 14 -74 122 -96 139 -14 12
-13 7 5 -20z"/>
<path d="M3488 11130 c-38 -21 -54 -58 -46 -111 4 -32 47 -38 73 -9 23 25 16
34 -18 21 -29 -11 -37 -6 -37 26 0 22 15 40 65 77 28 22 7 19 -37 -4z"/>
<path d="M2070 11101 c0 -18 39 -75 40 -58 0 12 -28 77 -34 77 -4 0 -6 -9 -6
-19z"/>
<path d="M2016 11069 c-11 -57 -8 -81 12 -77 14 3 16 12 14 48 -4 56 -17 71
-26 29z"/>
<path d="M2140 11085 c1 -17 29 -49 37 -41 4 3 -3 16 -15 29 -12 12 -22 17
-22 12z"/>
<path d="M1571 11038 c1 -56 14 -99 22 -78 20 46 37 104 32 108 -2 3 -11 -1
-20 -8 -12 -10 -15 -10 -15 4 0 9 -4 16 -10 16 -5 0 -10 -19 -9 -42z"/>
<path d="M2204 11061 c9 -10 25 -17 35 -14 16 4 130 -71 145 -96 4 -6 12 -11
18 -11 7 0 6 6 -2 15 -18 21 -3 19 86 -11 58 -19 110 -27 211 -34 l135 -8 66
39 c83 48 52 55 -39 8 -68 -34 -84 -32 -49 6 31 32 15 32 -34 -1 -38 -26 -40
-26 -110 -15 -97 16 -223 55 -327 102 -48 21 -101 39 -119 39 -32 0 -32 -1
-16 -19z"/>
<path d="M1650 11010 c-14 -10 -22 -21 -19 -25 3 -3 17 3 30 14 31 25 21 35
-11 11z"/>
<path d="M3510 10976 c-45 -16 -98 -45 -84 -46 13 0 155 48 162 55 10 10 -44
4 -78 -9z"/>
<path d="M1500 10952 c0 -5 7 -15 15 -22 8 -7 15 -8 15 -2 0 5 -7 15 -15 22
-8 7 -15 8 -15 2z"/>
<path d="M1498 10884 c6 -11 19 -27 28 -35 16 -13 16 -12 6 7 -6 11 -19 27
-28 35 -16 13 -16 12 -6 -7z"/>
<path d="M1410 10819 c78 -66 150 -120 150 -110 0 15 -152 141 -170 141 -9 0
-1 -13 20 -31z"/>
<path d="M3485 10811 c-44 -8 -112 -38 -122 -54 -4 -7 0 -8 13 -2 103 42 247
55 364 32 80 -16 101 -15 54 3 -73 28 -211 37 -309 21z"/>
<path d="M1270 10725 c0 -2 13 -11 29 -20 16 -8 58 -39 93 -70 34 -30 67 -55
73 -55 13 1 -100 106 -140 131 -28 18 -55 25 -55 14z"/>
<path d="M3458 10693 c12 -2 30 -2 40 0 9 3 -1 5 -23 4 -22 0 -30 -2 -17 -4z"/>
<path d="M3415 10621 c-15 -6 -10 -9 23 -13 54 -8 129 2 110 13 -16 11 -106
10 -133 0z"/>
<path d="M1010 10610 c14 -4 50 -9 80 -9 31 -1 74 -10 99 -21 52 -24 57 -25
41 -5 -20 24 -107 45 -179 44 -48 -1 -59 -3 -41 -9z"/>
<path d="M804 10555 c-33 -50 -27 -275 7 -275 6 0 6 6 0 18 -5 9 -12 51 -16
92 -6 61 -3 86 13 133 10 31 17 57 16 57 -2 0 -11 -11 -20 -25z"/>
<path d="M3498 10553 c-20 -2 -41 -9 -46 -16 -8 -9 6 -11 61 -9 39 2 94 1 122
-3 43 -5 52 -10 66 -37 25 -52 62 -73 127 -72 71 1 100 16 118 61 19 46 10 56
-11 12 l-15 -34 5 53 c7 66 -10 62 -20 -4 l-7 -46 -69 4 c-48 2 -74 9 -86 21
-15 14 -15 19 -5 26 37 23 -143 56 -240 44z"/>
<path d="M1195 10498 c-17 -35 -22 -38 -61 -38 -49 0 -64 -14 -40 -38 15 -15
16 -15 16 6 0 26 25 30 38 5 14 -24 40 -9 58 33 22 52 12 79 -11 32z"/>
<path d="M2227 10448 c-6 -61 2 -73 54 -82 36 -6 37 -5 40 26 5 44 -4 99 -16
100 -5 0 -14 -9 -20 -21 -12 -26 -29 -22 -33 7 -6 40 -19 23 -25 -30z"/>
<path d="M1020 10453 c0 -29 48 -93 70 -93 18 0 16 6 -16 50 -42 58 -54 68
-54 43z"/>
<path d="M2346 10414 c-11 -29 -6 -111 7 -123 22 -17 27 -3 27 71 0 51 -3 68
-14 68 -8 0 -17 -7 -20 -16z"/>
<path d="M975 10373 c15 -31 32 -49 40 -41 3 2 -9 20 -26 39 l-30 34 16 -32z"/>
<path d="M2197 10386 c-4 -10 -7 -25 -6 -34 0 -11 4 -9 10 7 5 13 8 29 6 35
-2 5 -6 2 -10 -8z"/>
<path d="M2950 10307 c-58 -28 -69 -60 -68 -192 0 -118 15 -190 17 -82 1 55 7
80 32 130 40 81 67 111 86 95 12 -10 14 -5 11 28 -4 47 -17 51 -78 21z m-21
-59 c-8 -14 -14 -18 -17 -10 -4 13 17 46 25 38 3 -2 -1 -15 -8 -28z"/>
<path d="M2405 10256 c-7 -57 3 -107 23 -114 8 -2 12 15 12 60 0 113 -24 148
-35 54z"/>
<path d="M326 10255 c3 -28 10 -63 16 -80 6 -16 14 -127 18 -245 9 -215 25
-330 66 -453 22 -65 29 -53 9 15 -38 129 -69 463 -46 506 11 20 -2 93 -36 206
-4 15 -1 18 16 13 35 -9 32 8 -10 49 l-39 38 6 -49z"/>
<path d="M3076 10254 c-11 -29 -6 -65 10 -71 11 -4 13 -13 9 -35 -5 -21 -2
-35 10 -48 15 -16 16 -30 10 -85 -8 -81 -8 -79 3 -83 14 -4 22 23 29 102 4 59
3 74 -11 85 -10 8 -16 29 -16 52 0 22 -4 39 -10 39 -5 0 -10 14 -10 30 0 32
-14 40 -24 14z"/>
<path d="M2089 10159 c22 -18 23 -21 7 -32 -16 -12 -15 -17 9 -70 14 -32 32
-96 40 -143 8 -47 17 -90 21 -95 9 -15 34 -10 34 8 0 9 6 24 14 32 13 14 11
26 -13 97 -15 45 -32 87 -36 95 -8 12 -6 12 8 0 14 -11 17 -11 17 1 0 22 -56
105 -79 117 -33 18 -48 12 -22 -10z"/>
<path d="M2466 10125 c-10 -28 -7 -49 15 -90 20 -37 21 -50 16 -167 -3 -71 -2
-128 1 -128 4 0 14 5 22 10 24 15 21 259 -5 329 -21 57 -38 73 -49 46z"/>
<path d="M1780 10063 c42 -28 122 -116 137 -151 15 -37 41 -52 54 -31 16 26 9
58 -19 91 -15 18 -36 46 -45 61 -23 35 -65 57 -76 38 -7 -10 -13 -10 -29 -2
-32 17 -50 12 -22 -6z"/>
<path d="M3146 9923 c-4 -32 -18 -82 -31 -111 -14 -30 -25 -63 -25 -73 0 -38
28 -17 54 40 20 45 26 74 26 130 0 85 -15 94 -24 14z"/>
<path d="M3341 9948 c-32 -20 -32 -22 -12 -29 11 -5 21 -13 21 -18 0 -17 49
10 55 30 14 42 -13 49 -64 17z"/>
<path d="M2911 9906 c-6 -16 -10 -34 -8 -40 6 -17 29 33 24 52 -3 13 -7 10
-16 -12z"/>
<path d="M3972 9879 c-13 -5 -21 -13 -18 -18 3 -4 -4 -17 -15 -27 -12 -10 -25
-27 -30 -36 -9 -16 -5 -18 31 -18 28 0 40 4 40 14 0 8 -8 16 -17 18 -15 3 -12
8 15 32 46 41 43 55 -6 35z"/>
<path d="M3323 9873 c-25 -5 -30 -19 -10 -26 8 -3 0 -17 -22 -40 -30 -32 -32
-37 -17 -43 39 -15 96 44 96 101 0 15 -6 16 -47 8z"/>
<path d="M2870 9760 c0 -6 7 -10 15 -10 8 0 15 2 15 4 0 2 -7 6 -15 10 -8 3
-15 1 -15 -4z"/>
<path d="M1855 9754 c-85 -13 -237 -81 -254 -113 -18 -32 -24 -123 -12 -184
22 -122 97 -224 183 -253 70 -23 199 -16 256 13 23 13 42 19 42 14 0 -13 55
-7 74 8 27 23 73 -3 86 -48 14 -50 13 -55 -15 -111 l-25 -49 22 -15 c21 -15
21 -18 8 -71 -12 -49 -12 -58 1 -66 8 -5 19 -9 26 -9 14 0 49 56 59 95 4 17
16 50 26 74 10 24 17 46 14 48 -2 2 -15 -7 -29 -21 -42 -42 -57 -33 -36 21 6
15 13 63 15 105 3 66 0 82 -21 123 -14 25 -25 54 -25 64 0 24 -43 147 -69 198
-28 55 -74 107 -127 144 -34 23 -57 31 -106 33 -35 3 -76 2 -93 0z m151 -59
c56 -28 108 -75 130 -117 22 -42 43 -157 34 -187 -14 -48 -50 -110 -73 -125
-49 -31 -226 -46 -300 -25 -88 24 -166 143 -175 268 -7 106 -4 112 86 154 70
33 146 52 223 56 14 0 48 -10 75 -24z"/>
<path d="M1871 9555 c-40 -45 -46 -73 -31 -136 16 -65 34 -72 76 -27 42 47 53
110 29 162 -10 20 -23 36 -30 36 -7 0 -27 -16 -44 -35z"/>
<path d="M3895 9667 c-8 -20 -15 -49 -14 -64 1 -21 6 -12 20 32 21 67 17 87
-6 32z"/>
<path d="M2875 9625 c-4 -16 -14 -39 -21 -50 -8 -11 -13 -42 -13 -70 l1 -50 8
46 c4 25 15 60 25 78 9 18 15 42 12 54 -3 19 -4 18 -12 -8z"/>
<path d="M1290 9621 c-30 -10 -71 -25 -90 -34 -19 -8 -56 -21 -82 -28 -34 -8
-48 -17 -48 -29 0 -26 -26 -43 -54 -36 -30 7 -43 -9 -24 -31 11 -13 11 -17 0
-21 -17 -5 -26 -17 -61 -73 -21 -33 -49 -58 -102 -90 -40 -25 -74 -50 -77 -57
-6 -18 29 -14 66 8 18 11 43 20 56 20 23 0 55 30 97 92 16 23 89 52 162 63 27
4 41 13 49 30 9 21 77 62 131 79 30 9 20 36 -13 36 -16 0 -30 5 -30 10 0 6 23
10 50 10 50 0 60 6 39 27 -8 8 -4 15 17 27 l29 15 -30 0 c-16 0 -55 -8 -85
-18z m-72 -119 c2 -7 -6 -12 -17 -12 -21 0 -27 11 -14 24 9 9 26 2 31 -12z"/>
<path d="M3162 9605 c-96 -31 -143 -64 -177 -127 -26 -48 -28 -59 -27 -151 2
-93 0 -103 -23 -133 -31 -41 -33 -100 -5 -152 10 -20 22 -54 25 -74 3 -21 17
-50 30 -65 l24 -28 0 35 c0 19 -7 53 -15 75 -29 73 -39 132 -27 157 21 43 33
116 33 198 0 94 12 123 69 172 42 36 147 78 194 78 57 0 124 -57 168 -141 46
-91 17 -229 -62 -292 -53 -42 -145 -56 -221 -33 -31 9 -70 27 -86 41 -34 29
-42 31 -42 11 0 -20 57 -65 118 -93 47 -22 57 -24 104 -14 127 28 218 98 244
189 31 107 -2 216 -92 305 -45 44 -93 67 -139 66 -11 0 -53 -11 -93 -24z"/>
<path d="M2432 9585 c0 -16 2 -22 5 -12 2 9 2 23 0 30 -3 6 -5 -1 -5 -18z"/>
<path d="M2450 9503 c0 -10 5 -25 10 -33 8 -12 10 -9 10 12 0 15 -4 30 -10 33
-5 3 -10 -2 -10 -12z"/>
<path d="M3216 9436 c-21 -44 -20 -102 2 -145 22 -45 35 -48 57 -15 24 37 24
112 -1 154 -26 45 -38 47 -58 6z"/>
<path d="M3836 9288 c-48 -230 -73 -309 -136 -432 -27 -53 -50 -100 -50 -103
0 -14 53 45 76 82 64 109 124 309 144 480 6 50 13 105 16 123 3 17 1 32 -3 32
-5 0 -26 -82 -47 -182z"/>
<path d="M3650 9421 c0 -4 18 -21 41 -36 47 -34 63 -58 53 -87 -3 -11 -1 -37
4 -57 6 -20 14 -48 17 -63 6 -33 20 -37 28 -8 9 35 -14 184 -31 204 -18 19
-84 56 -102 56 -5 0 -10 -4 -10 -9z"/>
<path d="M3150 9340 c0 -5 5 -10 10 -10 6 0 10 5 10 10 0 6 -4 10 -10 10 -5 0
-10 -4 -10 -10z"/>
<path d="M469 9226 c12 -13 21 -27 19 -32 -5 -17 21 -51 59 -77 52 -36 77 -34
34 3 -33 28 -33 28 -10 32 21 3 18 8 -36 50 -64 51 -106 66 -66 24z"/>
<path d="M500 9082 c0 -5 10 -18 23 -29 24 -22 57 -37 57 -25 -1 10 -80 65
-80 54z"/>
<path d="M540 9003 c0 -5 11 -20 25 -33 14 -13 25 -19 25 -13 0 5 -11 20 -25
33 -14 13 -25 19 -25 13z"/>
<path d="M3406 9002 c-2 -4 0 -14 5 -22 8 -13 10 -13 18 0 10 15 6 30 -9 30
-5 0 -11 -4 -14 -8z"/>
<path d="M3336 8971 c-3 -5 0 -11 7 -13 17 -7 38 2 31 13 -7 12 -31 12 -38 0z"/>
<path d="M3240 8960 c-8 -5 -25 -7 -37 -3 -33 8 -29 -13 9 -50 l32 -32 8 33
c6 23 14 32 30 32 17 0 18 2 8 15 -14 17 -29 19 -50 5z"/>
<path d="M561 8884 c-18 -23 -28 -54 -18 -54 2 0 18 18 36 40 22 27 27 40 17
40 -8 0 -24 -12 -35 -26z"/>
<path d="M601 8834 c-29 -37 -26 -55 4 -21 23 25 32 47 21 47 -3 0 -14 -12
-25 -26z"/>
<path d="M2515 8761 c-11 -5 -28 -17 -38 -28 -16 -19 -16 -20 0 -35 10 -8 31
-20 47 -25 41 -13 64 -48 77 -118 7 -39 19 -69 35 -86 15 -16 24 -37 25 -60
l0 -34 16 38 c8 20 21 37 28 37 21 0 67 60 99 128 24 50 36 64 62 72 37 13 48
33 34 61 -13 23 -20 25 -192 44 -153 17 -165 17 -193 6z m130 -31 c22 -6 80
-14 129 -19 48 -6 91 -13 95 -16 3 -4 -7 -16 -23 -27 -15 -12 -37 -42 -48 -67
-22 -53 -49 -84 -96 -113 -50 -31 -62 -14 -62 85 0 80 -14 117 -44 117 -6 0
-29 5 -51 11 -37 10 -38 12 -20 25 22 16 63 18 120 4z"/>
<path d="M617 8747 c-13 -33 -19 -110 -9 -103 5 3 13 29 17 57 7 49 3 74 -8
46z"/>
<path d="M3647 8708 c-6 -42 -2 -46 23 -23 26 23 26 55 1 55 -13 0 -20 -9 -24
-32z"/>
<path d="M1860 8715 c-16 -19 -3 -19 30 0 24 13 24 14 4 15 -12 0 -27 -7 -34
-15z"/>
<path d="M1995 8661 c-3 -5 -1 -12 5 -16 5 -3 10 1 10 9 0 18 -6 21 -15 7z"/>
<path d="M2190 8629 c0 -18 2 -19 15 -9 15 12 12 30 -6 30 -5 0 -9 -10 -9 -21z"/>
<path d="M667 8619 c-31 -23 -54 -59 -38 -59 13 0 81 59 81 71 0 14 -12 10
-43 -12z"/>
<path d="M3650 8625 c-24 -14 -24 -14 -4 -15 12 0 24 7 28 15 6 18 7 18 -24 0z"/>
<path d="M3055 8611 c-6 -11 9 -23 19 -14 9 9 7 23 -3 23 -6 0 -12 -4 -16 -9z"/>
<path d="M3206 8603 c-11 -11 -6 -23 9 -23 8 0 15 4 15 9 0 13 -16 22 -24 14z"/>
<path d="M3284 8558 c9 -12 16 -32 16 -44 0 -21 26 -52 35 -42 3 2 -2 28 -10
56 -12 40 -20 52 -36 52 -19 0 -19 -1 -5 -22z"/>
<path d="M684 8549 c-19 -22 -19 -22 4 -10 12 6 22 16 22 21 0 15 -5 12 -26
-11z"/>
<path d="M2096 8535 c-19 -15 -19 -15 2 -15 13 0 22 6 22 15 0 18 0 18 -24 0z"/>
<path d="M3610 8516 c0 -18 17 -29 30 -21 8 5 7 11 -1 21 -15 18 -29 18 -29 0z"/>
<path d="M694 8498 c-32 -34 -58 -78 -47 -78 14 0 75 79 71 91 -2 6 -13 0 -24
-13z"/>
<path d="M3150 8450 c0 -6 7 -10 15 -10 8 0 15 2 15 4 0 2 -7 6 -15 10 -8 3
-15 1 -15 -4z"/>
<path d="M3310 8435 c0 -8 4 -15 10 -15 5 0 7 7 4 15 -4 8 -8 15 -10 15 -2 0
-4 -7 -4 -15z"/>
<path d="M1940 8430 c0 -5 7 -10 15 -10 8 0 15 5 15 10 0 6 -7 10 -15 10 -8 0
-15 -4 -15 -10z"/>
<path d="M675 8388 c-3 -18 -9 -41 -12 -52 -3 -11 -1 -16 5 -12 11 7 27 84 19
92 -3 3 -8 -10 -12 -28z"/>
<path d="M1805 8390 c3 -5 11 -10 16 -10 6 0 7 5 4 10 -3 6 -11 10 -16 10 -6
0 -7 -4 -4 -10z"/>
<path d="M3010 8380 c0 -5 5 -10 10 -10 6 0 10 5 10 10 0 6 -4 10 -10 10 -5 0
-10 -4 -10 -10z"/>
<path d="M3563 8354 c-6 -3 -28 -26 -49 -51 -34 -42 -35 -45 -13 -38 31 9 60
35 39 35 -8 0 -3 11 15 30 29 30 30 32 8 24z"/>
<path d="M2473 8297 c-79 -23 -143 -45 -143 -50 0 -12 67 1 104 20 16 9 55 17
85 19 31 2 66 6 79 9 17 4 22 1 22 -15 0 -11 -4 -20 -10 -20 -5 0 -10 -8 -10
-17 0 -13 3 -14 11 -6 6 6 18 9 25 6 8 -3 14 1 14 10 0 22 18 31 35 17 25 -21
17 6 -11 39 -14 17 -33 31 -42 30 -10 0 -81 -19 -159 -42z"/>
<path d="M3152 8328 c5 -15 28 -23 28 -10 0 5 -7 13 -16 16 -10 4 -14 1 -12
-6z"/>
<path d="M1990 8319 c0 -5 5 -7 10 -4 6 3 10 8 10 11 0 2 -4 4 -10 4 -5 0 -10
-5 -10 -11z"/>
<path d="M2115 8301 c-7 -12 12 -24 25 -16 11 7 4 25 -10 25 -5 0 -11 -4 -15
-9z"/>
<path d="M690 8240 c-5 -321 -31 -613 -61 -707 -6 -18 -44 -72 -85 -120 -91
-108 -99 -143 -19 -82 50 38 74 61 43 43 -10 -6 -10 -4 -2 7 94 124 114 153
114 171 0 17 -2 18 -15 8 -21 -17 -20 -8 15 150 45 207 53 299 40 436 -14 143
-28 188 -30 94z"/>
<path d="M2740 8243 c0 -3 12 -21 26 -40 34 -44 93 -73 146 -72 l43 1 -48 8
c-51 9 -106 45 -133 86 -15 22 -34 32 -34 17z"/>
<path d="M2123 8233 c9 -2 25 -2 35 0 9 3 1 5 -18 5 -19 0 -27 -2 -17 -5z"/>
<path d="M3425 8180 c-43 -24 -62 -40 -49 -40 21 0 106 50 118 69 10 15 9 15
-69 -29z"/>
<path d="M3340 8101 c0 -15 82 -43 224 -75 27 -7 28 -8 11 -26 -10 -11 -40
-34 -66 -51 -27 -17 -49 -37 -49 -45 0 -17 46 -19 56 -2 5 8 2 9 -9 5 -32 -12
-17 8 26 35 62 39 84 65 71 85 -8 14 -85 38 -241 78 -13 3 -23 1 -23 -4z"/>
<path d="M2890 8042 c0 -4 -32 -42 -71 -86 -38 -43 -67 -81 -64 -85 9 -9 155
145 155 164 0 8 -4 15 -10 15 -5 0 -10 -3 -10 -8z"/>
<path d="M3582 7913 c-17 -34 -53 -145 -48 -151 5 -5 9 3 48 106 19 52 19 83
0 45z"/>
<path d="M2132 7898 c-19 -19 -14 -30 8 -18 11 6 20 15 20 20 0 14 -14 12 -28
-2z"/>
<path d="M2725 7879 c-4 -6 -5 -12 -2 -15 2 -3 7 2 10 11 7 17 1 20 -8 4z"/>
<path d="M2625 7854 c-9 -14 -15 -28 -12 -30 7 -8 37 26 37 42 0 20 -5 18 -25
-12z"/>
<path d="M2675 7850 c-3 -5 -1 -10 4 -10 6 0 11 5 11 10 0 6 -2 10 -4 10 -3 0
-8 -4 -11 -10z"/>
<path d="M2297 7833 c-4 -3 -7 -11 -7 -17 0 -6 5 -5 12 2 6 6 9 14 7 17 -3 3
-9 2 -12 -2z"/>
<path d="M2385 7820 c-16 -18 -16 -20 -2 -20 9 0 21 9 27 20 6 11 7 20 2 20
-5 0 -17 -9 -27 -20z"/>
<path d="M2335 7820 c-3 -5 -1 -10 4 -10 6 0 11 5 11 10 0 6 -2 10 -4 10 -3 0
-8 -4 -11 -10z"/>
<path d="M3580 7761 c-16 -24 -17 -29 -5 -25 17 7 40 43 32 50 -3 3 -15 -9
-27 -25z"/>
<path d="M3636 7696 c-33 -43 -34 -57 -2 -27 20 19 42 61 31 61 -1 0 -14 -15
-29 -34z"/>
<path d="M4375 7669 c-310 -121 -361 -131 -543 -105 -65 9 -92 10 -89 2 5 -16
69 -35 155 -47 93 -13 173 -1 292 45 83 33 315 146 295 144 -5 0 -55 -18 -110
-39z"/>
<path d="M4382 7569 c-52 -28 -91 -53 -88 -56 5 -5 172 81 191 98 22 21 -15 6
-103 -42z"/>
<path d="M4580 7551 c-38 -12 -133 -62 -127 -67 5 -6 157 62 157 70 0 3 -1 6
-2 5 -2 0 -14 -4 -28 -8z"/>
<path d="M4715 7489 c-105 -13 -110 -19 -15 -15 47 2 96 9 110 14 l25 11 -25
-1 c-14 0 -56 -4 -95 -9z"/>
<path d="M619 7348 c-84 -104 -103 -134 -90 -142 12 -8 181 201 181 223 0 24
-20 7 -91 -81z"/>
<path d="M4940 7352 c0 -4 24 -16 53 -26 46 -17 320 -158 662 -344 402 -217
918 -640 1181 -967 119 -148 276 -362 381 -519 103 -154 262 -461 313 -603 18
-51 37 -93 42 -93 20 0 -21 126 -111 335 -98 228 -205 406 -399 669 -295 399
-569 668 -972 956 -197 141 -276 191 -477 299 -354 191 -673 330 -673 293z"/>
<path d="M613 7242 c-37 -54 -73 -142 -73 -175 1 -12 16 14 34 58 19 45 44 98
56 118 33 55 20 54 -17 -1z"/>
<path d="M589 7083 c-24 -43 -107 -174 -186 -292 -79 -117 -143 -216 -143
-218 0 -2 26 15 58 40 31 24 88 65 125 91 38 27 66 50 64 52 -3 3 -31 -13 -62
-35 -32 -23 -60 -39 -62 -37 -2 2 34 59 80 127 108 158 205 349 178 349 -5 0
-29 -35 -52 -77z"/>
<path d="M421 6635 c-38 -41 -47 -55 -37 -55 2 0 23 23 46 50 52 62 47 65 -9
5z"/>
<path d="M425 6568 c-46 -47 -51 -55 -23 -35 20 15 39 27 41 27 3 0 -4 -24
-15 -52 -13 -34 -22 -87 -25 -148 -3 -52 -10 -101 -15 -107 -19 -23 1 -13 39
20 28 24 35 27 29 12 -16 -42 -27 -115 -24 -152 l4 -38 7 40 c4 22 14 67 23
100 8 33 18 74 21 90 l5 30 -34 -32 c-19 -18 -36 -33 -39 -33 -6 0 6 134 16
175 4 17 21 56 36 89 48 98 37 101 -46 14z"/>
<path d="M3457 6331 c-45 -44 -79 -83 -75 -87 4 -4 47 32 95 79 49 48 82 87
75 87 -7 0 -50 -36 -95 -79z"/>
<path d="M3493 6297 c-67 -68 -87 -97 -64 -97 5 0 24 19 42 43 18 23 51 61 73
85 68 72 27 46 -51 -31z"/>
<path d="M3517 6214 c-51 -68 -77 -110 -73 -120 3 -9 -6 -38 -20 -64 -17 -31
-24 -55 -19 -67 5 -15 19 -5 82 62 91 97 77 71 -31 -57 -109 -127 -159 -206
-152 -239 3 -18 -8 -48 -40 -103 -48 -86 -53 -106 -26 -106 13 0 36 28 72 88
59 96 135 196 264 347 47 55 86 106 86 112 0 25 -27 12 -75 -37 -27 -27 -53
-50 -58 -50 -4 0 11 26 34 58 83 114 93 132 81 144 -8 8 -22 2 -51 -21 -23
-18 -41 -30 -41 -26 0 3 16 29 35 58 38 56 31 75 -13 36 l-26 -24 19 30 c10
17 24 39 32 50 15 22 17 35 6 34 -5 0 -43 -47 -86 -105z"/>
<path d="M506 6184 c-13 -33 -6 -290 9 -347 16 -61 100 -236 166 -344 23 -38
97 -151 165 -253 112 -170 268 -451 310 -560 9 -25 20 -48 24 -53 8 -9 110
117 110 135 -1 14 -50 -36 -85 -85 l-21 -28 -57 143 c-31 79 -57 150 -57 159
0 9 -17 42 -38 75 -86 134 -240 388 -329 543 -52 91 -106 178 -119 192 -35 37
-54 139 -54 296 0 121 -9 167 -24 127z"/>
<path d="M3561 5864 c-156 -176 -330 -457 -317 -510 4 -15 -7 -49 -34 -100
-31 -58 -38 -79 -30 -89 18 -22 31 -10 100 91 65 96 105 142 60 68 -97 -156
-176 -327 -164 -357 3 -8 -11 -68 -30 -134 -20 -66 -36 -134 -36 -151 0 -27 4
-32 25 -32 14 0 25 -3 25 -7 0 -5 -12 -64 -27 -131 l-27 -124 21 -16 c12 -10
23 -26 25 -37 2 -12 11 -20 23 -20 17 0 22 11 32 83 6 46 19 104 27 129 19 55
20 77 5 101 -9 15 -2 42 35 141 47 123 51 151 21 151 -19 0 -19 2 0 47 19 46
19 69 -1 77 -13 5 -11 14 14 58 65 116 71 130 62 149 -8 14 11 51 95 181 72
113 101 166 94 173 -8 7 -34 -15 -85 -70 -41 -44 -74 -76 -74 -72 0 4 34 61
75 125 86 135 101 189 37 130 -40 -36 -21 0 43 86 69 91 73 136 6 60z m-167
-319 c-4 -8 -11 -15 -16 -15 -6 0 -5 6 2 15 7 8 14 15 16 15 2 0 1 -7 -2 -15z"/>
<path d="M5725 4745 c-126 -28 -275 -88 -400 -163 -134 -79 -400 -299 -384
-316 4 -4 41 23 83 58 188 160 325 251 478 317 130 57 249 89 351 96 48 3 90
10 93 15 8 13 -154 8 -221 -7z"/>
<path d="M1267 4648 c-70 -94 -92 -192 -27 -123 35 37 43 31 36 -23 -5 -39 -3
-54 13 -73 25 -32 90 -208 106 -289 18 -85 37 -387 39 -616 l1 -181 -87 -174
c-48 -96 -138 -253 -201 -349 -178 -273 -234 -372 -178 -315 23 24 237 346
310 468 61 102 154 294 170 352 13 49 14 308 1 505 -20 312 -50 458 -123 595
-19 36 -27 65 -27 102 0 57 -4 61 -38 37 -29 -20 -28 -12 9 53 36 62 33 81 -4
31z"/>
<path d="M7596 4582 c-2 -4 61 -86 141 -182 80 -96 159 -191 174 -210 16 -19
29 -30 29 -25 -1 6 -54 75 -120 155 -120 146 -151 193 -84 129 56 -52 25 -4
-46 74 -58 63 -82 78 -94 59z"/>
<path d="M3239 4464 c-7 -19 -12 -143 -13 -376 -1 -327 0 -346 17 -337 16 9
17 33 17 292 0 183 -4 287 -10 293 -8 8 -8 32 0 79 12 74 7 94 -11 49z"/>
<path d="M7700 4314 c0 -16 156 -180 165 -173 3 4 -32 47 -79 95 -47 49 -85
84 -86 78z"/>
<path d="M7879 3938 c72 -159 120 -354 192 -785 57 -341 76 -498 85 -683 7
-160 21 -225 70 -322 112 -223 264 -388 424 -460 36 -17 111 -59 167 -95 179
-113 384 -191 623 -235 107 -20 160 -22 735 -28 341 -4 621 -7 623 -8 1 -1 2
-9 2 -17 0 -13 21 -15 128 -15 115 -1 125 -2 102 -15 -23 -13 -16 -14 80 -15
58 0 143 -3 190 -6 47 -4 82 -3 78 1 -10 10 -125 34 -173 35 -29 1 -35 3 -21
9 36 14 -8 21 -127 21 -69 0 -158 8 -232 21 -106 19 -180 22 -645 29 -568 9
-632 14 -866 70 -159 38 -224 60 -335 116 -195 97 -467 281 -555 376 -77 82
-185 271 -208 363 -8 33 -19 146 -26 250 -13 227 -27 337 -80 640 -76 437
-127 625 -207 761 -42 70 -57 65 -24 -8z"/>
<path d="M3143 3700 c14 -11 29 -20 33 -20 4 0 -1 9 -11 20 -10 11 -25 20 -33
20 -9 0 -6 -7 11 -20z"/>
<path d="M3077 3673 c-12 -11 -7 -23 7 -17 8 3 31 1 52 -5 50 -14 57 -5 11 14
-39 16 -60 19 -70 8z"/>
<path d="M4440 3596 c-25 -18 -56 -46 -70 -61 l-25 -29 30 22 c36 25 122 101
115 101 -3 0 -25 -15 -50 -33z"/>
<path d="M4524 3608 l-19 -23 23 19 c21 18 27 26 19 26 -2 0 -12 -10 -23 -22z"/>
<path d="M3060 3570 c-36 -21 -81 -53 -100 -70 l-35 -32 60 32 c51 28 111 69
150 102 23 20 -15 4 -75 -32z"/>
<path d="M4490 3461 c-26 -37 -50 -95 -50 -118 1 -10 9 4 20 30 10 27 30 64
45 83 14 19 22 34 16 34 -5 0 -19 -13 -31 -29z"/>
<path d="M2936 3388 c-48 -77 -72 -127 -101 -212 -34 -100 -31 -129 4 -40 15
39 55 123 89 187 63 120 68 158 8 65z"/>
<path d="M4479 3299 c-9 -15 -15 -71 -17 -150 -3 -102 -1 -132 12 -158 9 -17
18 -31 19 -31 1 0 0 54 -1 120 -2 66 1 143 7 172 13 58 1 85 -20 47z"/>
<path d="M2898 3165 c-23 -45 -48 -134 -48 -173 0 -20 2 -33 5 -30 9 9 65 212
62 223 -2 5 -11 -3 -19 -20z"/>
<path d="M2957 3066 c-10 -69 -9 -194 2 -201 14 -8 23 111 13 185 l-8 65 -7
-49z"/>
<path d="M2690 3091 c0 -5 9 -7 20 -4 11 3 20 7 20 9 0 2 -9 4 -20 4 -11 0
-20 -4 -20 -9z"/>
<path d="M2695 3055 c-16 -8 -23 -14 -14 -15 8 0 24 7 35 15 23 18 18 18 -21
0z"/>
<path d="M2593 2923 c-99 -97 -223 -249 -223 -273 1 -9 19 5 46 34 24 27 47
47 49 44 3 -2 0 -130 -6 -283 -8 -186 -8 -280 -2 -282 7 -3 7 -19 1 -48 -5
-24 -8 -57 -6 -72 2 -20 8 -8 21 46 20 85 21 94 7 86 -13 -8 -13 11 6 195 10
106 13 195 8 281 l-6 127 102 111 c56 62 100 114 97 117 -2 3 -45 -35 -94 -83z"/>
<path d="M3050 2935 c1 -11 7 -31 16 -45 15 -25 15 -25 8 10 -7 40 -24 65 -24
35z"/>
<path d="M3140 2874 c0 -22 7 -49 15 -60 15 -18 15 -16 9 26 -9 65 -23 85 -24
34z"/>
<path d="M3200 2822 c0 -19 30 -61 52 -73 15 -8 26 -6 45 7 l26 16 -6 -36 c-6
-40 8 -57 27 -31 11 16 15 13 40 -30 26 -43 27 -51 17 -85 -6 -21 -11 -51 -11
-68 0 -17 -6 -32 -12 -35 -9 -3 -6 -12 10 -28 19 -20 24 -22 32 -9 5 8 10 44
10 80 0 36 4 71 9 78 10 17 -38 109 -74 140 -14 12 -25 31 -25 42 0 27 -8 25
-42 -7 l-29 -28 -34 40 c-19 22 -34 34 -35 27z"/>
<path d="M3460 2609 c0 -8 13 -30 28 -49 44 -54 54 -78 52 -128 -4 -75 -1 -79
25 -39 14 20 27 37 30 37 2 0 -8 -43 -22 -97 -20 -74 -23 -100 -15 -114 9 -14
7 -31 -9 -76 -14 -39 -22 -91 -25 -158 l-4 -100 16 42 c14 38 70 100 81 90 2
-3 -5 -20 -16 -38 -33 -54 -25 -67 15 -28 34 32 36 32 29 9 -4 -14 -10 -31
-12 -37 -3 -7 -2 -13 1 -13 3 0 17 22 30 49 18 35 22 51 14 59 -8 8 -6 18 6
37 10 14 16 31 14 36 -3 9 -31 -9 -102 -65 -20 -16 -39 -27 -41 -24 -7 6 59
212 90 282 45 102 27 135 -20 36 -16 -33 -31 -58 -33 -55 -3 2 8 49 23 104 15
56 24 109 20 118 -6 16 -10 14 -36 -15 l-29 -32 -1 57 c0 52 -2 55 -11 30
l-10 -29 -18 39 c-20 44 -70 95 -70 72z"/>
<path d="M2280 2565 c-14 -35 -25 -105 -17 -105 10 0 39 109 34 123 -3 6 -10
-1 -17 -18z"/>
<path d="M3320 2441 c0 -12 51 -53 58 -46 6 6 -38 55 -50 55 -4 0 -8 -4 -8 -9z"/>
<path d="M911 2370 c-57 -66 -67 -80 -57 -80 9 0 128 141 123 146 -3 3 -32
-27 -66 -66z"/>
<path d="M2187 2360 c9 -137 23 -193 18 -75 -2 55 -9 114 -14 130 -8 23 -9 9
-4 -55z"/>
<path d="M2224 2414 c3 -9 6 -21 6 -27 0 -8 3 -8 10 -1 12 12 3 44 -12 44 -6
0 -7 -7 -4 -16z"/>
<path d="M3315 2380 c-5 -9 50 -50 68 -50 15 0 6 19 -19 39 -30 23 -40 26 -49
11z"/>
<path d="M893 2290 c-37 -27 -73 -69 -73 -86 0 -10 100 77 111 97 13 25 10 24
-38 -11z"/>
<path d="M3330 2220 c-12 -8 -9 -10 13 -10 16 0 26 4 22 10 -8 12 -16 12 -35
0z"/>
<path d="M827 2160 c-37 -43 -167 -283 -167 -306 1 -18 2 -18 19 3 26 31 184
323 178 329 -2 3 -16 -9 -30 -26z"/>
<path d="M3335 2110 c-3 -5 -2 -10 4 -10 5 0 13 5 16 10 3 6 2 10 -4 10 -5 0
-13 -4 -16 -10z"/>
<path d="M3355 2048 c-44 -61 -44 -61 -37 -122 14 -121 8 -327 -11 -386 -25
-79 -157 -338 -176 -345 -34 -14 -289 -18 -319 -6 -24 10 -37 9 -79 -8 -28
-11 -78 -27 -112 -36 -58 -15 -63 -15 -100 5 -22 11 -46 29 -54 41 -13 18 -13
26 8 77 19 46 21 58 10 62 -10 3 -11 10 -5 20 16 25 11 34 -9 16 -11 -10 -25
-30 -31 -46 -12 -30 -10 -122 4 -152 6 -14 4 -18 -11 -18 -35 0 -258 52 -272
63 -29 24 12 202 55 236 13 10 43 22 66 25 24 4 54 14 68 22 23 13 19 14 -54
10 -69 -3 -82 -7 -98 -27 -35 -44 -50 -81 -62 -153 -6 -39 -16 -70 -21 -68 -6
1 -9 38 -8 82 l1 80 53 61 c70 80 119 108 183 106 44 -2 51 1 77 33 53 64 73
131 77 269 2 73 0 127 -6 133 -10 10 -20 -83 -20 -188 0 -37 -8 -68 -32 -115
-47 -93 -54 -99 -117 -99 -66 0 -99 -16 -151 -75 -22 -25 -44 -45 -50 -45 -19
0 -42 -100 -42 -182 0 -73 2 -79 24 -89 13 -6 30 -26 39 -45 11 -22 21 -32 31
-28 8 3 44 -4 81 -15 149 -46 423 -53 489 -12 32 20 43 21 163 15 113 -6 135
-4 188 14 111 38 120 42 106 52 -11 6 -4 25 31 86 106 184 135 339 118 635 -5
80 -3 88 21 120 32 43 42 59 35 59 -3 0 -26 -28 -51 -62z"/>
<path d="M2082 1931 c-7 -35 -11 -65 -8 -68 8 -9 28 71 24 102 -2 23 -6 16
-16 -34z"/>
<path d="M3935 1958 c-108 -26 -324 -106 -292 -108 18 0 286 81 328 99 47 21
30 25 -36 9z"/>
<path d="M2020 1903 c-16 -37 -26 -153 -12 -153 5 0 12 10 15 23 9 34 20 157
15 157 -3 0 -11 -12 -18 -27z"/>
<path d="M1967 1883 c-3 -21 -8 -72 -11 -113 -6 -73 -6 -74 9 -42 19 41 33
192 18 192 -6 0 -13 -17 -16 -37z"/>
<path d="M3955 1899 c-154 -28 -296 -103 -416 -216 -64 -62 -100 -105 -121
-147 -69 -136 -88 -238 -68 -356 10 -59 18 -79 47 -111 65 -72 93 -83 192 -76
69 4 104 1 162 -14 87 -23 272 -30 291 -11 9 9 9 12 -3 12 -36 0 -192 21 -272
37 -74 14 -93 22 -122 50 -79 77 -98 183 -50 279 32 64 54 85 133 124 65 32
75 54 19 43 -77 -14 -203 -109 -194 -145 3 -10 -1 -39 -9 -65 -25 -79 -4 -168
55 -235 l31 -35 -40 -7 c-23 -4 -55 -1 -78 7 -47 16 -121 74 -132 102 -4 11
-4 67 1 125 16 216 85 334 269 460 107 73 273 144 380 162 l67 12 174 -65
c149 -54 183 -64 237 -63 62 1 62 1 62 -28 0 -15 5 -28 10 -28 11 0 13 39 4
64 -5 13 -22 16 -85 16 -43 0 -79 3 -79 7 0 4 10 18 23 32 l22 25 -27 -17
c-30 -19 -56 -21 -78 -7 -12 8 -9 15 20 45 36 38 34 45 -6 19 -13 -9 -27 -14
-31 -11 -3 3 -13 -3 -22 -13 -11 -14 -20 -17 -31 -10 -12 7 -11 13 10 34 28
31 18 34 -17 6 -32 -25 -42 -25 -121 0 -75 24 -78 24 -207 -1z"/>
<path d="M610 1810 c-14 -5 -78 -16 -142 -24 -175 -23 -209 -46 -310 -211 -78
-128 -102 -178 -132 -276 -30 -98 -32 -126 -11 -195 23 -77 52 -99 134 -100
54 0 74 -5 100 -23 40 -29 111 -51 162 -51 53 0 122 25 195 71 l62 39 58 -34
c133 -79 237 -93 384 -52 138 38 397 150 450 194 24 20 25 20 6 41 -19 21 -46
28 -46 13 0 -4 5 -13 12 -20 8 -8 4 -14 -18 -22 -16 -6 -93 -38 -170 -70 -162
-68 -230 -88 -330 -97 -87 -7 -196 15 -269 55 l-50 28 2 74 c2 51 -1 70 -7 60
-5 -8 -10 -27 -10 -42 0 -15 -7 -45 -16 -67 -13 -34 -25 -43 -97 -77 -72 -34
-91 -38 -157 -38 -59 -1 -84 4 -118 22 -78 41 -82 50 -82 160 0 130 15 176
100 301 39 57 68 106 65 109 -7 7 -81 -75 -116 -130 -56 -86 -72 -142 -77
-271 -4 -102 -7 -117 -21 -113 -9 2 -33 7 -54 11 -55 9 -71 49 -57 145 18 128
51 198 187 394 30 43 62 76 84 88 19 10 89 28 155 39 112 20 174 45 174 70 0
11 -6 10 -40 -1z"/>
<path d="M4720 1741 c0 -25 39 -73 55 -67 8 3 19 -2 26 -10 22 -27 22 -6 -1
26 -12 16 -26 28 -31 25 -5 -4 -14 5 -21 19 -13 30 -28 34 -28 7z"/>
<path d="M1877 1662 c-21 -39 -42 -72 -47 -74 -5 -2 -25 -41 -45 -87 -19 -47
-47 -102 -62 -124 -45 -64 -81 -121 -82 -129 -3 -29 63 40 145 153 25 34 137
306 131 322 -1 5 -20 -22 -40 -61z"/>
<path d="M4691 1705 c-1 -21 15 -52 23 -45 2 3 -2 19 -9 35 -10 23 -14 25 -14
10z"/>
<path d="M4921 1603 c11 -34 19 -42 19 -20 0 7 -7 22 -15 33 -13 17 -14 16 -4
-13z"/>
<path d="M5226 1503 c16 -151 21 -163 44 -109 l16 39 18 -39 c17 -38 144 -150
156 -137 3 3 -11 17 -30 31 -60 45 -108 100 -115 131 -3 16 -13 35 -22 42 -13
11 -18 10 -29 -6 -13 -17 -14 -15 -14 22 0 46 -8 73 -21 73 -5 0 -6 -21 -3
-47z"/>
<path d="M2504 1471 c-27 -17 -72 -86 -62 -97 3 -2 15 11 28 29 13 17 31 37
39 44 52 39 56 42 41 43 -8 0 -29 -9 -46 -19z"/>
<path d="M690 1404 c-71 -67 -62 -86 10 -22 33 29 60 56 60 60 0 18 -24 5 -70
-38z"/>
<path d="M7667 1428 c-8 -21 4 -151 15 -175 19 -38 31 -27 23 20 -4 23 -10 68
-14 99 -7 59 -15 79 -24 56z"/>
<path d="M697 1350 c-34 -27 -67 -82 -67 -111 1 -20 4 -18 22 16 11 22 34 57
50 78 33 42 32 46 -5 17z"/>
<path d="M11255 1220 c-8 -13 6 -17 83 -24 44 -4 116 -27 242 -76 99 -38 185
-70 190 -70 5 0 15 -9 22 -20 15 -24 97 -73 338 -200 189 -99 307 -173 383
-241 72 -63 207 -228 207 -252 0 -2 -11 -2 -25 1 -15 2 -25 0 -25 -7 0 -14 79
-101 91 -101 13 0 11 63 -2 97 -6 15 -12 40 -13 54 -2 33 -119 183 -188 242
-91 77 -236 165 -443 268 -110 54 -242 123 -294 154 -169 98 -401 184 -498
185 -34 0 -65 -5 -68 -10z"/>
<path d="M4220 1179 c-60 -45 -104 -86 -60 -56 14 10 39 24 55 31 31 15 85 66
69 66 -5 0 -34 -19 -64 -41z"/>
<path d="M1590 1202 c0 -12 19 -26 26 -19 2 2 -2 10 -11 17 -9 8 -15 8 -15 2z"/>
<path d="M4556 1184 c-21 -7 -42 -11 -47 -8 -5 3 -26 -8 -47 -24 -20 -15 -54
-39 -75 -51 -69 -42 -29 -34 60 12 48 24 105 50 125 56 38 12 61 32 36 30 -7
0 -30 -7 -52 -15z"/>
<path d="M4299 1163 l-24 -28 28 24 c25 23 32 31 24 31 -2 0 -14 -12 -28 -27z"/>
<path d="M4340 1145 c-27 -29 -13 -33 21 -7 13 11 18 21 12 25 -6 4 -21 -5
-33 -18z"/>
<path d="M7657 1164 c-3 -4 7 -30 22 -59 15 -28 30 -62 33 -73 4 -14 14 -22
28 -22 21 0 21 2 -10 55 -18 31 -30 62 -27 69 9 23 -28 47 -46 30z"/>
<path d="M6200 1068 c0 -3 16 -25 35 -48 19 -23 35 -38 35 -33 -1 10 -70 91
-70 81z"/>
<path d="M6360 1010 c0 -24 -15 -26 -24 -4 -4 9 -9 14 -13 11 -9 -9 26 -59 37
-52 6 4 10 18 10 32 0 25 2 24 53 -24 50 -48 134 -100 143 -90 3 3 -15 16 -39
30 -24 14 -66 46 -94 71 -56 50 -73 56 -73 26z"/>
<path d="M6576 988 c18 -61 54 -108 82 -108 12 0 8 8 -15 33 -17 17 -38 47
-47 65 -19 37 -31 43 -20 10z"/>
<path d="M7719 977 c37 -39 41 -42 41 -28 0 5 -17 21 -37 36 l-38 28 34 -36z"/>
<path d="M4131 984 c0 -11 3 -14 6 -6 3 7 2 16 -1 19 -3 4 -6 -2 -5 -13z"/>
<path d="M4263 990 c-13 -5 -23 -11 -23 -12 0 -2 30 -3 68 -4 46 -1 137 -19
287 -57 121 -30 249 -58 285 -61 36 -3 135 -13 220 -21 239 -23 656 -52 1085
-76 l390 -22 129 -49 c71 -26 131 -46 134 -43 8 8 -220 113 -258 119 -48 8
-390 33 -700 51 -358 21 -750 53 -802 64 -24 6 -97 15 -163 20 -66 6 -165 23
-220 37 -55 15 -127 33 -160 40 -79 18 -244 27 -272 14z"/>
<path d="M7656 972 c-5 -9 84 -112 97 -112 4 0 7 9 7 19 0 18 5 17 76 -10 41
-16 88 -29 102 -29 15 0 52 -6 81 -14 33 -8 77 -12 114 -8 l60 5 -44 18 c-24
10 -65 18 -90 18 -25 1 -68 8 -95 16 -27 8 -65 14 -84 13 -50 -1 -144 29 -166
53 -24 27 -51 41 -58 31z"/>
<path d="M7690 834 c0 -28 -3 -66 -6 -83 -5 -24 -3 -31 9 -31 39 0 51 101 17
141 l-19 24 -1 -51z"/>
<path d="M8171 861 c-18 -11 0 -16 94 -26 33 -4 170 -33 305 -65 424 -102 563
-127 1010 -179 405 -48 1084 -105 1375 -116 94 -4 121 -10 425 -105 401 -125
401 -125 477 -177 181 -123 420 -209 528 -189 55 11 42 23 -37 35 -40 6 -109
22 -153 36 -82 26 -117 42 -335 157 -69 36 -161 77 -205 91 -44 14 -172 56
-285 92 -303 99 -327 104 -580 120 -528 35 -816 61 -1256 115 -415 51 -457 58
-844 141 -323 70 -488 92 -519 70z"/>
<path d="M7636 764 c-3 -9 -6 -29 -6 -45 0 -24 4 -29 25 -29 22 0 24 3 15 19
-5 11 -10 29 -10 40 0 25 -16 36 -24 15z"/>
<path d="M6845 700 c-3 -5 8 -16 26 -25 54 -28 800 -31 783 -4 -3 5 -26 9 -52
9 -26 0 -78 7 -117 15 -88 19 -149 20 -142 3 6 -17 -390 -15 -443 1 -43 13
-47 14 -55 1z"/>
<path d="M12666 258 c4 -7 24 -33 45 -58 20 -25 44 -60 53 -77 16 -32 36 -44
36 -23 0 45 -94 170 -128 170 -8 0 -10 -5 -6 -12z"/>
<path d="M12694 143 c20 -83 28 -103 36 -98 23 14 -1 125 -27 125 -12 0 -14
-6 -9 -27z"/>
<path d="M12345 91 c-20 -8 -20 -8 2 -15 24 -8 227 -36 261 -36 39 0 19 23
-30 36 -62 16 -208 25 -233 15z"/>
</g>
</svg>
