<svg width="323" height="327" viewBox="0 0 323 327" fill="none" xmlns="http://www.w3.org/2000/svg">
<path d="M147.904 44.4829L147.337 41.2705L143.839 41.9068L143.656 40.8728L147.155 40.2365L146.571 36.9277L142.659 37.6391L142.476 36.605L147.641 35.6657L149.34 45.2889L144.175 46.2283L143.992 45.1942L147.904 44.4829Z" fill="black"/>
<path d="M119.784 47.4096L115.162 44.0861L116.488 43.5197L120.097 46.1187L120.685 41.7267L121.986 41.1712L121.11 46.8431L125.737 50.1794L124.423 50.7404L120.796 48.1339L120.2 52.5444L118.887 53.1054L119.784 47.4096Z" fill="black"/>
<path d="M94.1527 63.1674C93.6805 62.5068 93.5125 61.7903 93.6486 61.0179C93.7826 60.2586 94.3081 59.5413 95.2249 58.8661L96.7355 57.7537L94.3663 54.4394L95.3922 53.684L101.067 61.6223L98.5304 63.4901C97.6436 64.1432 96.8163 64.4221 96.0485 64.3269C95.2731 64.2373 94.6412 63.8508 94.1527 63.1674ZM95.8356 59.7203C95.2644 60.1409 94.9331 60.5761 94.8416 61.0259C94.7502 61.4757 94.87 61.9322 95.2011 62.3954C95.9013 63.3748 96.8075 63.455 97.9198 62.6359L99.4304 61.5235L97.3462 58.6079L95.8356 59.7203Z" fill="black"/>
<path d="M72.4458 73.7478L70.186 76.3095L69.4193 75.6128L72.5219 72.0956L79.7435 78.6581L78.9007 79.6135L72.4458 73.7478Z" fill="black"/>
<path d="M54.6117 94.3623C55.0351 93.562 55.6057 92.9324 56.3236 92.4734C57.0498 92.0188 57.8473 91.7785 58.7163 91.7525C59.5891 91.7393 60.4434 91.9604 61.2793 92.4159C62.1153 92.8715 62.7648 93.4699 63.2278 94.2112C63.6947 94.9652 63.938 95.7726 63.9576 96.6336C63.9855 97.4991 63.7877 98.3319 63.3644 99.1322C62.9367 99.9407 62.3598 100.572 61.6336 101.027C60.9157 101.486 60.1244 101.724 59.2598 101.742C58.3953 101.76 57.5409 101.539 56.6968 101.079C55.8527 100.618 55.1991 100.018 54.736 99.2766C54.2729 98.5353 54.0275 97.732 53.9996 96.8665C53.98 96.0055 54.184 95.1708 54.6117 94.3623ZM55.5829 94.8915C55.2643 95.4938 55.1177 96.1101 55.1432 96.7404C55.1644 97.379 55.3611 97.9752 55.7334 98.5288C56.1013 99.0907 56.6254 99.5569 57.3056 99.9276C57.994 100.303 58.6665 100.489 59.323 100.485C59.9833 100.494 60.5794 100.335 61.1111 100.009C61.6429 99.682 62.0703 99.2134 62.3932 98.6029C62.7162 97.9924 62.8649 97.372 62.8394 96.7416C62.8139 96.1113 62.6172 95.5152 62.2493 94.9533C61.8852 94.4042 61.3589 93.942 60.6705 93.5668C59.9903 93.1961 59.32 93.0062 58.6597 92.9971C57.995 92.9962 57.3968 93.1591 56.865 93.4858C56.3288 93.8207 55.9015 94.2893 55.5829 94.8915Z" fill="black"/>
<path d="M40.1278 128.031L44.5434 126.729L44.9028 125.231L41.0294 124.274L41.3266 123.035L50.7995 125.377L50.0645 128.44C49.8924 129.157 49.6253 129.73 49.2631 130.16C48.8986 130.598 48.4786 130.889 48.0031 131.031C47.5275 131.173 47.0224 131.178 46.4878 131.045C45.8354 130.884 45.3058 130.551 44.899 130.047C44.4899 129.552 44.2942 128.907 44.3119 128.114L39.7717 129.515L40.1278 128.031ZM45.8949 125.476L45.4572 127.301C45.296 127.972 45.3382 128.516 45.5838 128.933C45.8385 129.351 46.2422 129.629 46.7949 129.766C47.3566 129.905 47.8318 129.844 48.2205 129.585C48.6069 129.334 48.8818 128.868 49.0452 128.188L49.4829 126.363L45.8949 125.476Z" fill="black"/>
<path d="M44.3066 153.389L41.0451 153.331L40.9827 156.886L39.9329 156.867L39.9953 153.312L36.6358 153.251L36.5661 157.226L35.5162 157.207L35.6084 151.958L45.3788 152.135L45.2867 157.384L44.2368 157.365L44.3066 153.389Z" fill="black"/>
<path d="M47.0144 200.777L46.0008 201.144L44.1494 195.873L45.1631 195.507L47.0144 200.777Z" fill="black"/>
<path d="M67.3 234.194L64.8265 236.321L67.105 239.051L66.3088 239.736L64.0303 237.006L61.4825 239.196L64.0301 242.249L63.234 242.933L59.87 238.903L67.2799 232.532L70.6438 236.563L69.8476 237.247L67.3 234.194Z" fill="black"/>
<path d="M83.9203 257.413L83.3893 263.145L82.2449 262.267L82.6629 257.79L78.6228 259.491L77.5007 258.63L82.7759 256.536L83.3152 250.794L84.4485 251.662L84.0333 256.16L88.0928 254.456L89.2261 255.325L83.9203 257.413Z" fill="black"/>
<path d="M110.268 271.986C109.943 272.73 109.416 273.235 108.689 273.501C107.974 273.763 107.097 273.66 106.059 273.192L104.348 272.422L102.716 276.154L101.555 275.631L105.463 266.69L108.335 267.984C109.34 268.436 109.995 269.023 110.301 269.744C110.615 270.469 110.604 271.217 110.268 271.986ZM106.479 272.23C107.126 272.521 107.664 272.595 108.094 272.45C108.524 272.306 108.853 271.973 109.081 271.452C109.563 270.348 109.174 269.513 107.915 268.946L106.204 268.176L104.769 271.459L106.479 272.23Z" fill="black"/>
<path d="M130.186 285.649L133.529 286.353L133.321 287.368L128.732 286.401L130.687 276.841L131.934 277.104L130.186 285.649Z" fill="black"/>
<path d="M156.721 290.89C155.817 290.92 154.984 290.738 154.225 290.343C153.464 289.938 152.853 289.366 152.39 288.625C151.936 287.874 151.694 287.023 151.663 286.072C151.633 285.12 151.82 284.259 152.224 283.489C152.638 282.71 153.211 282.098 153.944 281.653C154.676 281.199 155.495 280.957 156.4 280.927C157.314 280.897 158.151 281.084 158.911 281.488C159.671 281.883 160.278 282.451 160.731 283.193C161.185 283.934 161.427 284.785 161.458 285.746C161.489 286.707 161.302 287.572 160.897 288.342C160.493 289.112 159.924 289.724 159.192 290.178C158.459 290.622 157.636 290.86 156.721 290.89ZM156.686 289.785C157.367 289.762 157.973 289.583 158.503 289.248C159.044 288.912 159.458 288.446 159.747 287.848C160.045 287.25 160.182 286.563 160.157 285.789C160.131 285.005 159.951 284.33 159.615 283.762C159.288 283.184 158.849 282.746 158.298 282.447C157.747 282.148 157.126 282.01 156.436 282.033C155.745 282.056 155.135 282.235 154.604 282.57C154.073 282.905 153.659 283.372 153.36 283.97C153.071 284.559 152.939 285.245 152.965 286.028C152.99 286.802 153.166 287.478 153.492 288.056C153.828 288.633 154.272 289.071 154.823 289.37C155.384 289.669 156.005 289.807 156.686 289.785Z" fill="black"/>
<path d="M192.648 286.685L189.309 283.519L187.833 283.96L188.946 287.792L187.725 288.157L185.004 278.786L188.022 277.884C188.729 277.672 189.358 277.615 189.912 277.713C190.474 277.808 190.935 278.025 191.296 278.366C191.658 278.706 191.915 279.14 192.068 279.669C192.256 280.314 192.233 280.94 192.001 281.545C191.777 282.147 191.318 282.64 190.623 283.024L194.11 286.248L192.648 286.685ZM187.548 282.979L189.346 282.441C190.007 282.243 190.457 281.934 190.694 281.512C190.929 281.081 190.966 280.593 190.808 280.046C190.646 279.49 190.356 279.11 189.937 278.904C189.526 278.695 188.986 278.691 188.315 278.892L186.518 279.43L187.548 282.979Z" fill="black"/>
<path d="M212.132 270.428L213.7 273.288L216.796 271.54L217.301 272.46L214.205 274.209L215.82 277.155L219.282 275.2L219.787 276.121L215.215 278.703L210.518 270.133L215.089 267.552L215.594 268.473L212.132 270.428Z" fill="black"/>
<path d="M251.16 244.304L251.977 245.007L248.398 249.295L247.58 248.593L251.16 244.304Z" fill="black"/>
<path d="M269.503 209.799L272.57 210.909L273.749 207.554L274.736 207.911L273.557 211.266L276.717 212.41L278.035 208.658L279.022 209.016L277.282 213.969L268.093 210.644L269.833 205.69L270.82 206.048L269.503 209.799Z" fill="black"/>
<path d="M281.019 183.596L286.211 181.22L286.039 182.652L281.981 184.505L285.495 187.183L285.326 188.587L280.847 185.028L275.64 187.402L275.811 185.984L279.884 184.119L276.359 181.425L276.529 180.007L281.019 183.596Z" fill="black"/>
<path d="M280.243 153.177C281.05 153.088 281.753 153.292 282.35 153.79C282.937 154.279 283.292 155.09 283.412 156.222L283.611 158.088L287.661 157.643L287.796 158.91L278.097 159.976L277.762 156.844C277.646 155.748 277.821 154.889 278.29 154.264C278.757 153.631 279.408 153.268 280.243 153.177ZM282.369 156.337C282.293 155.632 282.085 155.129 281.743 154.829C281.401 154.528 280.947 154.409 280.381 154.471C279.185 154.603 278.66 155.355 278.806 156.729L279.005 158.594L282.568 158.203L282.369 156.337Z" fill="black"/>
<path d="M281.965 128.723L280.902 125.477L281.884 125.146L283.343 129.603L274.097 132.721L273.7 131.511L281.965 128.723Z" fill="black"/>
<path d="M273.11 102.789C273.584 103.56 273.84 104.376 273.876 105.236C273.905 106.102 273.715 106.924 273.306 107.703C272.885 108.478 272.272 109.121 271.468 109.63C270.664 110.14 269.83 110.414 268.966 110.453C268.09 110.49 267.279 110.302 266.533 109.891C265.779 109.485 265.165 108.896 264.69 108.125C264.211 107.346 263.957 106.524 263.928 105.658C263.892 104.797 264.08 103.982 264.494 103.211C264.907 102.441 265.52 101.798 266.332 101.284C267.144 100.769 267.982 100.492 268.845 100.453C269.709 100.414 270.518 100.598 271.271 101.004C272.018 101.415 272.63 102.01 273.11 102.789ZM272.175 103.381C271.818 102.801 271.364 102.365 270.812 102.074C270.256 101.775 269.648 101.651 268.99 101.704C268.327 101.748 267.669 101.978 267.014 102.393C266.352 102.812 265.86 103.312 265.538 103.892C265.202 104.47 265.043 105.074 265.058 105.705C265.074 106.335 265.263 106.945 265.625 107.533C265.987 108.121 266.443 108.561 266.995 108.852C267.547 109.143 268.154 109.267 268.817 109.222C269.467 109.175 270.123 108.941 270.786 108.521C271.44 108.107 271.935 107.611 272.27 107.034C272.6 106.449 272.757 105.841 272.742 105.21C272.721 104.571 272.532 103.961 272.175 103.381Z" fill="black"/>
<path d="M251.423 73.3511L250.374 77.8784L251.484 78.9461L254.207 76.0301L255.125 76.9134L248.465 84.0448L246.195 81.8608C245.664 81.3496 245.302 80.8271 245.111 80.2935C244.913 79.7535 244.87 79.2392 244.981 78.7507C245.093 78.2622 245.337 77.8167 245.712 77.4143C246.171 76.9232 246.717 76.6259 247.35 76.5226C247.976 76.4127 248.625 76.565 249.298 76.9793L250.323 72.293L251.423 73.3511ZM250.786 79.693L249.434 78.3923C248.937 77.9134 248.449 77.6771 247.971 77.6832C247.486 77.6961 247.049 77.9106 246.661 78.3267C246.266 78.7496 246.084 79.1968 246.117 79.6681C246.142 80.133 246.407 80.6081 246.912 81.0934L248.263 82.3941L250.786 79.693Z" fill="black"/>
<path d="M227.709 64.4358L229.361 61.6231L226.318 59.7822L226.85 58.8769L229.893 60.7178L231.594 57.8206L228.193 55.7622L228.724 54.8569L233.216 57.5747L228.267 66.0007L223.775 63.2829L224.307 62.3775L227.709 64.4358Z" fill="black"/>
<path d="M185.798 43.3412L185.985 42.2796L191.481 43.279L191.294 44.3406L185.798 43.3412Z" fill="black"/>
</svg>
