<svg width="344" height="79" viewBox="0 0 344 79" fill="none" xmlns="http://www.w3.org/2000/svg">
<path d="M22.944 70.96L-1.25554 80.467L-1.16994 80.6848L-1.08043 80.9012L22.944 70.96ZM22.08 60.304L47.9823 62.5564L47.9863 62.5098L47.9902 62.4632L22.08 60.304ZM22.56 55.792L48.3416 59.1548L-0.695106 44.1644L22.56 55.792ZM17.952 63.952L-4.00522 50.0279L-4.12767 50.221L-4.2467 50.4162L17.952 63.952ZM12.864 70.384L30.5557 89.4366L12.864 70.384ZM0.864 56.752L-24.2799 50.1352L-24.3619 50.4466L-24.4361 50.7599L0.864 56.752ZM3.168 49.552L-21.1494 40.3508L-21.1494 40.3508L3.168 49.552ZM5.952 43.696L-16.096 29.916L-16.096 29.916L5.952 43.696ZM10.464 41.968L1.33482 66.3126L2.01522 66.5677L2.70881 66.7845L10.464 41.968ZM12 43.312L33.8288 57.4365L38 50.9902V43.312H12ZM6.72 55.6L31.6235 63.071L31.6486 62.9873L31.6732 62.9034L6.72 55.6ZM5.76 65.008L-20.0619 68.0459L-20.0509 68.1394L-20.0392 68.2329L5.76 65.008ZM6.624 67.792L-16.2682 80.1186L-15.9124 80.7794L-15.5191 81.4185L6.624 67.792ZM13.632 66.256L-5.7268 48.8998L-5.7268 48.8998L13.632 66.256ZM18.624 59.248L-3.76009 46.021L-3.76009 46.021L18.624 59.248ZM23.328 50.704L46.4793 62.5369L48.1456 59.2768L48.8468 55.6833L23.328 50.704ZM24.576 44.944L-0.217143 37.1146L-0.407263 37.7166L-0.567938 38.3272L24.576 44.944ZM25.728 42.64L42.3729 62.6137L43.2788 61.8587L44.1127 61.0248L25.728 42.64ZM29.184 42.64L13.5841 63.44L14.4675 64.1026L15.404 64.6879L29.184 42.64ZM29.856 44.656L5.19019 36.4342L3.856 40.4369V44.656H29.856ZM29.76 45.232L5.09428 37.0099L4.9382 37.4782L4.8 37.952L29.76 45.232ZM28.416 51.088L2.86917 46.2548L2.81642 46.5337L2.76976 46.8136L28.416 51.088ZM27.552 68.752L3.28501 78.0854L3.28503 78.0855L27.552 68.752ZM32.544 68.272L49.9371 87.5977L50.1975 87.3633L50.4515 87.122L32.544 68.272ZM36.48 63.568L15.2768 48.5206L15.2282 48.5891L15.18 48.658L36.48 63.568ZM40.512 57.136L18.0538 44.0354L17.9163 44.2709L17.7839 44.5093L40.512 57.136ZM44.064 50.32L67.7103 61.1298L70.064 55.9811V50.32H44.064ZM44.736 42.736L19.7364 35.5932L19.6484 35.9011L19.5681 36.211L44.736 42.736ZM46.56 39.088L29.9152 19.1142L29.4849 19.4728L29.0705 19.8496L46.56 39.088ZM51.456 39.472L28.8817 52.3716L29.4393 53.3474L30.079 54.2715L51.456 39.472ZM52.032 43.216L75.9297 53.458L76.166 52.9067L76.3766 52.3451L52.032 43.216ZM51.264 44.752L28.5359 32.1253L28.4277 32.3201L28.3228 32.5167L51.264 44.752ZM49.728 48.496L74.2849 57.0375L74.3404 56.8781L74.3938 56.7179L49.728 48.496ZM49.248 57.904L23.6017 62.1783L23.6018 62.1784L49.248 57.904ZM50.496 60.784L30.5222 77.4288L30.5222 77.4288L50.496 60.784ZM57.312 60.4L74.0595 80.2877L74.1053 80.2492L74.1508 80.2104L57.312 60.4ZM61.056 54.832L76.9085 34.2238L51.1369 14.3995L37.4659 43.9L61.056 54.832ZM62.304 55.792L86.1022 66.2632L94.3099 47.6094L78.1565 35.1838L62.304 55.792ZM57.6 62.224L43.7469 40.2219L43.5582 40.3408L43.3715 40.4628L57.6 62.224ZM47.712 61.84L29.3272 80.2248L29.541 80.4385L29.7597 80.6473L47.712 61.84ZM44.736 55.792L70.029 49.7699L54.3062 -16.2659L21.8918 43.3767L44.736 55.792ZM39.36 64.336L60.4506 79.5408L60.4506 79.5408L39.36 64.336ZM33.216 71.056L16.7518 50.9331L16.5719 51.0803L16.3946 51.2308L33.216 71.056ZM27.072 47.744C30.2306 47.744 34.7017 48.5328 39.0897 51.4921C43.4548 54.4361 45.8149 58.2312 46.9684 61.0188L-1.08043 80.9012C0.841096 85.5448 4.27317 90.7319 10.0143 94.6039C15.7783 98.4912 21.9294 99.744 27.072 99.744V47.744ZM47.1435 61.453C47.9504 63.5069 47.888 64.7503 47.888 64.432H-4.112C-4.112 69.2337 -3.47043 74.8291 -1.25554 80.467L47.1435 61.453ZM47.888 64.432C47.888 64.0079 47.9097 63.3907 47.9823 62.5564L-3.82226 58.0516C-4.00571 60.1613 -4.112 62.2961 -4.112 64.432H47.888ZM47.9902 62.4632C48.0859 61.3141 48.2037 60.2118 48.3416 59.1548L-3.22161 52.4292C-3.46775 54.3162 -3.66995 56.2219 -3.83019 58.1448L47.9902 62.4632ZM-0.695106 44.1644C-1.71483 46.2039 -2.81864 48.1568 -4.00522 50.0279L39.9092 77.8761C42.0506 74.4992 44.0188 71.0121 45.8151 67.4196L-0.695106 44.1644ZM-4.2467 50.4162C-4.56376 50.9362 -4.79242 51.2472 -4.91136 51.3975C-5.03012 51.5477 -5.0107 51.5013 -4.82773 51.3314L30.5557 89.4366C34.4766 85.7958 37.6116 81.652 40.1507 77.4878L-4.2467 50.4162ZM-4.82773 51.3314C-2.98425 49.6196 1.17825 46.88 7.2 46.88V98.88C17.1898 98.88 25.1283 94.4764 30.5557 89.4366L-4.82773 51.3314ZM7.2 46.88C10.2506 46.88 13.6843 47.6195 16.9467 49.4319C20.1118 51.1903 22.1432 53.4145 23.316 55.09L-19.284 84.91C-13.6969 92.8916 -4.42628 98.88 7.2 98.88V46.88ZM23.316 55.09C25.3914 58.0548 26 61.1383 26 63.184H-26C-26 70.4777 -24.0474 78.1052 -19.284 84.91L23.316 55.09ZM26 63.184C26 63.5845 25.9701 63.7528 25.9846 63.6454C25.9984 63.5426 26.0443 63.2498 26.1641 62.7441L-24.4361 50.7599C-25.3281 54.5262 -26 58.7526 -26 63.184H26ZM26.0079 63.3688C26.4161 61.818 26.9076 60.2804 27.4854 58.7532L-21.1494 40.3508C-22.3636 43.5595 -23.4081 46.822 -24.2799 50.1352L26.0079 63.3688ZM27.4854 58.7532C27.7231 58.1251 27.9052 57.7115 28.0175 57.4753C28.1329 57.2325 28.1366 57.2574 28 57.476L-16.096 29.916C-18.2383 33.3438 -19.8678 36.9637 -21.1494 40.3508L27.4854 58.7532ZM28 57.476C27.8924 57.648 26.9202 59.2369 24.9313 61.0729C23.3174 62.5627 17.619 67.392 8.448 67.392V15.392C-1.42701 15.392 -7.89336 20.6053 -10.3393 22.8631C-13.1602 25.4671 -15.0284 28.208 -16.096 29.916L28 57.476ZM8.448 67.392C6.20461 67.392 4.49927 67.087 3.81344 66.9543C2.97646 66.7923 2.35461 66.6229 2.04927 66.5356C1.45143 66.3648 1.15622 66.2456 1.33482 66.3126L19.5932 17.6234C18.7478 17.3064 17.6046 16.8992 16.3347 16.5364C15.7517 16.3698 12.5062 15.392 8.448 15.392V67.392ZM2.70881 66.7845C1.54207 66.4199 -1.92083 65.2472 -5.50512 62.111C-9.76789 58.3811 -14 51.8954 -14 43.312H38C38 34.1526 33.5119 27.1549 28.7371 22.977C24.6408 19.3928 20.4099 17.8361 18.2192 17.1515L2.70881 66.7845ZM-9.82884 29.1875C-11.5792 31.8926 -13.0675 34.933 -14.2383 37.4942L33.0543 59.1138C33.438 58.2745 33.7178 57.706 33.8989 57.3572C33.9415 57.2751 33.9745 57.2133 33.9979 57.1701C34.0214 57.1267 34.0329 57.1065 34.0325 57.1073C34.0322 57.1078 34.0163 57.1357 33.985 57.1876C33.9539 57.239 33.9018 57.3237 33.8288 57.4365L-9.82884 29.1875ZM-14.2383 37.4942C-15.8346 40.986 -17.152 44.6028 -18.2332 48.2966L31.6732 62.9034C32.128 61.3492 32.6026 60.102 33.0543 59.1138L-14.2383 37.4942ZM-18.1835 48.129C-19.4953 52.5017 -20.432 57.3983 -20.432 62.608H31.568C31.568 63.1221 31.5218 63.4276 31.5117 63.4894C31.5016 63.5505 31.5196 63.4174 31.6235 63.071L-18.1835 48.129ZM-20.432 62.608C-20.432 64.7399 -20.2066 66.8164 -20.0619 68.0459L31.5819 61.9701C31.5431 61.6403 31.5321 61.5048 31.5332 61.5186C31.5342 61.5309 31.5415 61.623 31.5491 61.7792C31.5563 61.9261 31.568 62.2153 31.568 62.608H-20.432ZM-20.0392 68.2329C-19.5496 72.1501 -18.3737 76.2085 -16.2682 80.1186L29.5162 55.4654C30.7257 57.7115 31.3256 59.9139 31.5592 61.7831L-20.0392 68.2329ZM-15.5191 81.4185C-10.0047 90.3794 -0.596526 95.04 8.928 95.04V43.04C11.9929 43.04 15.9416 43.6858 19.9674 45.8664C24.0484 48.077 26.9244 51.1711 28.7671 54.1655L-15.5191 81.4185ZM8.928 95.04C21.5673 95.04 29.6606 87.3266 32.9908 83.6122L-5.7268 48.8998C-5.39161 48.526 -4.19924 47.2503 -2.03434 45.969C0.244102 44.6205 4.01526 43.04 8.928 43.04V95.04ZM32.9908 83.6122C36.0862 80.1596 38.7266 76.336 41.0081 72.475L-3.76009 46.021C-4.80659 47.792 -5.49419 48.6404 -5.7268 48.8998L32.9908 83.6122ZM41.0081 72.475C42.9389 69.2074 44.7631 65.8946 46.4793 62.5369L0.1767 38.8711C-1.05114 41.2734 -2.36295 43.6566 -3.76009 46.021L41.0081 72.475ZM48.8468 55.6833C49.3428 53.1413 49.6267 51.9149 49.7199 51.5608L-0.567938 38.3272C-1.11475 40.4051 -1.66276 43.0187 -2.19075 45.7247L48.8468 55.6833ZM49.3691 52.7734C49.3265 52.9084 49.0434 53.8109 48.4071 55.0835C48.0757 55.7465 47.52 56.7695 46.6812 57.9577C45.8732 59.1024 44.4866 60.8522 42.3729 62.6137L9.08313 22.6663C4.83281 26.2083 2.70402 30.2142 1.89689 31.8285C0.876561 33.8691 0.209478 35.7636 -0.217143 37.1146L49.3691 52.7734ZM44.1127 61.0248C41.9429 63.1947 39.2253 65.0712 36.0321 66.3484C32.8693 67.6135 29.8106 68.064 27.168 68.064V16.064C20.1606 16.064 12.922 18.6765 7.34327 24.2552L44.1127 61.0248ZM27.168 68.064C24.0651 68.064 18.7596 67.3217 13.5841 63.44L44.784 21.84C38.5844 17.1903 31.9349 16.064 27.168 16.064V68.064ZM15.404 64.6879C11.8351 62.4573 8.63553 59.1528 6.50489 54.8915C4.46025 50.8023 3.952 46.9493 3.952 44.176H55.952C55.952 36.2539 52.4496 26.5206 42.964 20.5921L15.404 64.6879ZM3.952 44.176C3.952 42.1364 4.19975 40.4588 4.43289 39.2931C4.67136 38.1007 4.95857 37.1291 5.19019 36.4342L54.5218 52.8778C55.0184 51.3881 55.952 48.2365 55.952 44.176H3.952ZM3.856 44.656C3.856 41.9053 4.32263 39.3248 5.09428 37.0099L54.4257 53.4541C55.3254 50.7552 55.856 47.7907 55.856 44.656H3.856ZM4.8 37.952C4.03153 40.5868 3.40367 43.4296 2.86917 46.2548L53.9628 55.9212C54.3243 54.0104 54.5925 52.9492 54.72 52.512L4.8 37.952ZM2.76976 46.8136C2.28977 49.6936 1.89929 52.6361 1.59168 55.6352L53.3203 60.9408C53.5247 58.9479 53.7742 57.0904 54.0622 55.3624L2.76976 46.8136ZM1.59168 55.6352C1.25862 58.8826 1.072 62.1123 1.072 65.296H53.072C53.072 64.1277 53.1414 62.6854 53.3203 60.9408L1.59168 55.6352ZM1.072 65.296C1.072 68.1553 1.31353 72.9596 3.28501 78.0854L51.819 59.4186C52.5507 61.3211 52.8291 62.8545 52.9448 63.6872C53.0659 64.5589 53.072 65.1335 53.072 65.296H1.072ZM3.28503 78.0855C4.65955 81.6592 7.32873 86.4585 12.4063 90.3413C17.7603 94.4356 23.8207 96 29.184 96V44C33.7793 44 39.1837 45.3564 43.9937 49.0347C48.5273 52.5015 50.7645 56.6768 51.819 59.4185L3.28503 78.0855ZM29.184 96C40.0217 96 47.2981 89.9727 49.9371 87.5977L15.1509 48.9463C15.6109 48.5323 16.8466 47.4783 18.853 46.4465C20.866 45.4112 24.442 44 29.184 44V96ZM50.4515 87.122C53.3231 84.3939 55.742 81.3895 57.78 78.478L15.18 48.658C14.8752 49.0934 14.6621 49.3624 14.5476 49.4992C14.4307 49.639 14.4566 49.5929 14.6365 49.422L50.4515 87.122ZM57.6832 78.6154C59.687 75.7919 61.5345 72.8327 63.2401 69.7627L17.7839 44.5093C16.9295 46.0473 16.089 47.3761 15.2768 48.5206L57.6832 78.6154ZM62.9703 70.2366C64.7126 67.2497 66.3005 64.2138 67.7103 61.1298L20.4177 39.5102C19.7795 40.9062 18.9994 42.4143 18.0538 44.0354L62.9703 70.2366ZM70.064 50.32C70.064 49.2015 70.1032 48.5317 70.1305 48.2228C70.1432 48.0795 70.1465 48.0933 70.1238 48.237C70.1024 48.3728 70.0409 48.7327 69.9039 49.261L19.5681 36.211C18.2812 41.1746 18.064 46.337 18.064 50.32H70.064ZM69.7356 49.8788C69.6999 50.0037 69.4546 50.8605 68.8311 52.1075C68.2654 53.2389 66.8571 55.774 64.0495 58.3264L29.0705 19.8496C22.7326 25.6113 20.5209 32.8476 19.7364 35.5932L69.7356 49.8788ZM63.2048 59.0618C60.7308 61.1234 55.8116 64.128 48.864 64.128V12.128C40.3804 12.128 33.9252 15.7726 29.9152 19.1142L63.2048 59.0618ZM48.864 64.128C46.3243 64.128 42.5305 63.6585 38.4558 61.5456C34.1735 59.3252 30.9508 55.9925 28.8817 52.3716L74.0303 26.5724C67.9841 15.9916 57.4304 12.128 48.864 12.128V64.128ZM30.079 54.2715C28.9055 52.5764 26.32 48.211 26.32 41.776H78.32C78.32 33.933 75.1585 28.0316 72.833 24.6725L30.079 54.2715ZM26.32 41.776C26.32 38.5033 27.0186 35.8705 27.6874 34.0869L76.3766 52.3451C77.4294 49.5375 78.32 45.9447 78.32 41.776H26.32ZM28.1343 32.974C28.2698 32.6578 28.3792 32.4318 28.4409 32.3084C28.5042 32.1819 28.5396 32.1186 28.5359 32.1253L73.9921 57.3787C74.6037 56.2778 75.2919 54.9462 75.9297 53.458L28.1343 32.974ZM28.3228 32.5167C26.8802 35.2216 25.8357 37.9536 25.0622 40.2741L74.3938 56.7179C74.4451 56.5638 74.4854 56.4502 74.5137 56.3734C74.5421 56.2961 74.5549 56.2656 74.5504 56.2765C74.5462 56.2867 74.5191 56.3522 74.4669 56.4649C74.4151 56.5765 74.3291 56.7549 74.2052 56.9873L28.3228 32.5167ZM25.1711 39.9545C23.2704 45.419 22.96 50.8124 22.96 54.64H74.96C74.96 54.1323 74.9871 54.0741 74.9512 54.3609C74.921 54.6027 74.7854 55.5987 74.2849 57.0375L25.1711 39.9545ZM22.96 54.64C22.96 57.2789 23.2064 59.8063 23.6017 62.1783L74.8943 53.6297C74.9056 53.6977 74.96 54.0491 74.96 54.64H22.96ZM23.6018 62.1784C24.4237 67.1102 26.4618 72.5562 30.5222 77.4288L70.4698 44.1392C73.2503 47.4758 74.4563 51.0018 74.8942 53.6296L23.6018 62.1784ZM30.5222 77.4288C37.6609 85.9951 47.2322 87.936 53.472 87.936V35.936C57.0238 35.936 64.6111 37.1089 70.4698 44.1392L30.5222 77.4288ZM53.472 87.936C62.0248 87.936 69.0545 84.5025 74.0595 80.2877L40.5645 40.5123C43.1375 38.3455 47.6072 35.936 53.472 35.936V87.936ZM74.1508 80.2104C79.6607 75.5271 82.8307 69.6813 84.6461 65.764L37.4659 43.9C37.2766 44.3085 37.3077 44.1665 37.6321 43.6841C37.9266 43.2461 38.8129 42.0008 40.4732 40.5896L74.1508 80.2104ZM45.2035 75.4402L46.4515 76.4002L78.1565 35.1838L76.9085 34.2238L45.2035 75.4402ZM38.5058 45.3208C38.3368 45.705 38.4735 45.2887 39.0856 44.4517C39.6842 43.6331 41.1379 41.8646 43.7469 40.2219L71.4531 84.2261C79.7094 79.0277 83.9279 71.2047 86.1022 66.2632L38.5058 45.3208ZM43.3715 40.4628C44.7072 39.5895 47.9891 37.856 52.8 37.856V89.856C60.6829 89.856 67.1648 87.0345 71.8285 83.9852L43.3715 40.4628ZM52.8 37.856C54.7988 37.856 57.1597 38.2064 59.6175 39.1803C62.0843 40.1577 64.1119 41.5508 65.6644 43.0327L29.7597 80.6473C36.1071 86.7062 44.2731 89.856 52.8 89.856V37.856ZM66.0968 43.4552C67.769 45.1275 68.7496 46.7453 69.2887 47.8408C69.8179 48.9162 69.998 49.64 70.029 49.7699L19.443 61.8141C20.721 67.1816 23.3724 74.2699 29.3272 80.2248L66.0968 43.4552ZM21.8918 43.3767C20.8233 45.3427 19.6185 47.2598 18.2694 49.1312L60.4506 79.5408C63.0695 75.9082 65.4487 72.1293 67.5802 68.2073L21.8918 43.3767ZM18.2694 49.1312C17.3012 50.4742 16.7511 50.9337 16.7518 50.9331L49.6802 91.1789C53.9049 87.7223 57.4508 83.7018 60.4506 79.5408L18.2694 49.1312ZM16.3946 51.2308C17.1346 50.6028 20.8424 47.744 27.072 47.744V99.744C37.2696 99.744 45.0734 95.0932 50.0374 90.8812L16.3946 51.2308ZM60.786 70.96L41.5476 88.4495L41.5603 88.4636L41.5731 88.4776L60.786 70.96ZM60.018 53.968L36.3972 43.1025L36.3069 43.2989L36.2198 43.4968L60.018 53.968ZM65.778 44.944L46.1006 27.9499L45.9887 28.0794L45.8786 28.2104L65.778 44.944ZM73.746 38.128L87.1229 60.4228L87.3033 60.3146L87.4818 60.2035L73.746 38.128ZM86.322 36.592L72.4382 58.5747L72.6899 58.7337L72.9451 58.8868L86.322 36.592ZM86.034 48.208L64.4986 33.64L64.4494 33.7127L64.4007 33.7858L86.034 48.208ZM80.37 53.872L65.4214 32.599L65.2837 32.6958L65.1472 32.7943L80.37 53.872ZM72.69 58L81.7571 82.3678L81.9091 82.3112L82.0604 82.2528L72.69 58ZM64.434 59.92L62.0258 34.0318L42.7379 35.826L38.9389 54.821L64.434 59.92ZM64.146 61.744L89.987 64.6152L89.987 64.6152L64.146 61.744ZM64.338 66.256L38.8429 71.355L39.0041 72.161L39.2159 72.9552L64.338 66.256ZM65.586 68.944L44.209 83.7435L44.4899 84.1492L44.786 84.544L65.586 68.944ZM67.89 70.768L56.895 94.3288L57.1803 94.4619L57.4687 94.5881L67.89 70.768ZM79.794 69.136L92.6936 91.7103L92.8941 91.5957L93.0926 91.4776L79.794 69.136ZM87.282 62.896L106.608 80.2891L106.608 80.2891L87.282 62.896ZM93.138 54.448L108.738 33.648L84.2297 15.2668L70.0782 42.4377L93.138 54.448ZM94.29 55.312L118 65.9815L126.541 47.0005L109.89 34.512L94.29 55.312ZM87.666 65.296L68.8588 47.3436L68.7508 47.4567L68.6442 47.5711L87.666 65.296ZM79.026 71.824L67.5894 48.4744L67.3008 48.6158L67.0157 48.7642L79.026 71.824ZM64.914 58.096L39.8625 51.1373L26.7863 98.2116L73.1359 82.7618L64.914 58.096ZM70.77 55.6L82.3976 78.8551L82.6679 78.7199L82.9351 78.5785L70.77 55.6ZM77.01 51.568L61.41 30.768L61.2508 30.8874L61.0935 31.0092L77.01 51.568ZM82.002 46.48L60.9435 31.2308L60.7682 31.4729L60.5985 31.7189L82.002 46.48ZM77.106 40.24L91.5282 61.8733L91.8008 61.6915L92.0688 61.503L77.106 40.24ZM72.114 44.848L52.1402 28.2032L52.1402 28.2032L72.114 44.848ZM67.794 51.184L45.0659 38.5573L45.0659 38.5573L67.794 51.184ZM69.618 48.224C70.0203 48.224 71.4745 48.2735 73.4949 49.0201C75.6596 49.8201 78.0056 51.2563 79.9989 53.4424L41.5731 88.4776C49.9494 97.6644 60.9045 100.224 69.618 100.224V48.224ZM80.0244 53.4705C81.2783 54.8497 82.3417 56.5576 83.0432 58.4749C83.7302 60.3528 83.906 61.9786 83.906 63.088H31.906C31.906 72.0004 34.833 81.0634 41.5476 88.4495L80.0244 53.4705ZM83.906 63.088C83.906 64.4981 83.5564 65.0297 83.8162 64.4392L36.2198 43.4968C33.6636 49.3063 31.906 55.9179 31.906 63.088H83.906ZM83.6388 64.8335C84.0959 63.8396 84.7399 62.7924 85.6774 61.6776L45.8786 28.2104C42.0801 32.7276 38.8841 37.6964 36.3972 43.1025L83.6388 64.8335ZM85.4554 61.9381C86.2752 60.9889 86.852 60.5854 87.1229 60.4228L60.3691 15.8332C54.8801 19.1266 50.1448 23.2671 46.1006 27.9499L85.4554 61.9381ZM87.4818 60.2035C87.0883 60.4483 85.2404 61.44 82.29 61.44V9.44C73.7076 9.44 66.1637 12.2237 60.0102 16.0525L87.4818 60.2035ZM82.29 61.44C78.9693 61.44 75.4793 60.4954 72.4382 58.5747L100.206 14.6093C94.7327 11.1526 88.5547 9.44 82.29 9.44V61.44ZM72.9451 58.8868C68.1294 55.9974 65.1948 51.8562 63.69 48.1693C62.3381 44.8573 62.242 42.2351 62.242 41.296H114.242C114.242 35.4398 112.668 22.0789 99.6989 14.2972L72.9451 58.8868ZM62.242 41.296C62.242 39.8419 62.4694 38.3563 62.923 36.9363C63.3713 35.5328 63.9645 34.4295 64.4986 33.64L107.569 62.776C111.706 56.6606 114.242 49.3412 114.242 41.296H62.242ZM64.4007 33.7858C65.0099 32.872 65.522 32.5283 65.4214 32.599L95.3186 75.145C99.954 71.8877 104.242 67.768 107.667 62.6302L64.4007 33.7858ZM65.1472 32.7943C64.7586 33.075 64.1857 33.4126 63.3196 33.7472L82.0604 82.2528C86.8263 80.4114 91.3734 77.997 95.5928 74.9497L65.1472 32.7943ZM63.6229 33.6322C62.8807 33.9084 62.3635 34.0004 62.0258 34.0318L66.8422 85.8082C72.0085 85.3276 76.9953 84.1396 81.7571 82.3678L63.6229 33.6322ZM38.9389 54.821C38.6815 56.108 38.4616 57.4633 38.305 58.8728L89.987 64.6152C89.9584 64.8727 89.9305 65.012 89.9291 65.019L38.9389 54.821ZM38.305 58.8728C38.1486 60.2803 38.05 61.7894 38.05 63.376H90.05C90.05 63.9386 90.0154 64.3597 89.987 64.6152L38.305 58.8728ZM38.05 63.376C38.05 66.0818 38.3218 68.7494 38.8429 71.355L89.8331 61.157C89.9702 61.8426 90.05 62.5902 90.05 63.376H38.05ZM39.2159 72.9552C40.2585 76.865 41.9592 80.4938 44.209 83.7435L86.963 54.1445C88.0608 55.7302 88.9295 57.567 89.4601 59.5568L39.2159 72.9552ZM44.786 84.544C48.1841 89.0747 52.4709 92.2642 56.895 94.3288L78.885 47.2072C81.3891 48.3758 84.1399 50.3493 86.386 53.344L44.786 84.544ZM57.4687 94.5881C62.6436 96.8521 67.6575 97.44 71.634 97.44V45.44C72.6665 45.44 75.1844 45.5799 78.3113 46.9479L57.4687 94.5881ZM71.634 97.44C79.4543 97.44 86.5777 95.2051 92.6936 91.7103L66.8944 46.5617C67.6343 46.1389 69.3177 45.44 71.634 45.44V97.44ZM93.0926 91.4776C98.2414 88.4128 102.73 84.5976 106.608 80.2891L67.9564 45.5029C67.226 46.3144 66.7226 46.6592 66.4954 46.7944L93.0926 91.4776ZM106.608 80.2891C110.387 76.0901 113.591 71.4637 116.198 66.4583L70.0782 42.4377C69.4852 43.5763 68.7853 44.5819 67.9563 45.5029L106.608 80.2891ZM77.538 75.248L78.69 76.112L109.89 34.512L108.738 33.648L77.538 75.248ZM70.58 44.6425C69.9627 46.0143 69.3515 46.8274 68.8588 47.3436L106.473 83.2484C111.356 78.1326 115.161 72.2897 118 65.9815L70.58 44.6425ZM68.6442 47.5711C67.9629 48.3022 67.5974 48.4705 67.5894 48.4744L90.4626 95.1736C96.7266 92.1055 102.121 87.9218 106.688 83.0209L68.6442 47.5711ZM67.0157 48.7642C67.1291 48.7052 67.4437 48.5582 67.9432 48.4308C68.4513 48.3012 69.0257 48.224 69.618 48.224V100.224C77.3385 100.224 84.5683 98.2525 91.0363 94.8838L67.0157 48.7642ZM73.1359 82.7618C76.3436 81.6925 79.4614 80.3232 82.3976 78.8551L59.1424 32.3449C57.7266 33.0528 56.9404 33.3475 56.6921 33.4302L73.1359 82.7618ZM82.9351 78.5785C86.4535 76.7158 89.7862 74.558 92.9265 72.1268L61.0935 31.0092C60.2658 31.65 59.4385 32.1802 58.6049 32.6215L82.9351 78.5785ZM92.61 72.368C96.606 69.371 100.33 65.7003 103.406 61.2411L60.5985 31.7189C61.1138 30.9717 61.51 30.693 61.41 30.768L92.61 72.368ZM103.061 61.7292C107.217 55.9892 110.018 48.7926 110.018 40.624H58.018C58.018 36.5514 59.4749 33.2588 60.9435 31.2308L103.061 61.7292ZM110.018 40.624C110.018 37.3007 109.502 30.9226 105.267 24.5698L62.0007 53.4142C58.2775 47.8294 58.018 42.5392 58.018 40.624H110.018ZM105.267 24.5698C97.3551 12.7014 84.7214 12.416 82.002 12.416V64.416C80.6595 64.416 77.8234 64.2928 74.3807 63.0777C70.6939 61.7765 65.7018 58.9658 62.0007 53.4142L105.267 24.5698ZM82.002 12.416C73.4352 12.416 66.6475 15.8073 62.1432 18.977L92.0688 61.503C91.0205 62.2407 87.4968 64.416 82.002 64.416V12.416ZM62.6838 18.6067C58.5028 21.394 55.0271 24.739 52.1402 28.2032L92.0878 61.4928C92.2361 61.3147 92.2778 61.2866 92.1973 61.3609C92.1153 61.4365 91.8965 61.6278 91.5282 61.8733L62.6838 18.6067ZM52.1402 28.2032C49.4434 31.4394 47.0934 34.9078 45.0659 38.5573L90.5221 63.8107C91.0546 62.8522 91.5846 62.0966 92.0878 61.4928L52.1402 28.2032ZM45.0659 38.5573C42.891 42.4721 41.1035 46.6697 39.8625 51.1373L89.9655 65.0547C90.0045 64.9143 90.137 64.5039 90.5221 63.8107L45.0659 38.5573ZM93.2348 70L71.1441 83.7114L71.2063 83.8117L71.2695 83.9114L93.2348 70ZM93.2348 52.048L118.319 58.8891L118.319 58.8891L93.2348 52.048ZM97.7468 38.704L73.6983 28.8211L73.6401 28.9627L73.5836 29.1049L97.7468 38.704ZM103.987 25.072L127.174 36.8338L127.208 36.7668L127.242 36.6996L103.987 25.072ZM116.851 4.144L97.355 -13.0582L97.2106 -12.8946L97.0691 -12.7286L116.851 4.144ZM123.091 2.128L100.198 14.4546L100.409 14.8453L100.633 15.2287L123.091 2.128ZM124.147 5.008L98.7659 10.6482L98.8009 10.8058L98.8379 10.963L124.147 5.008ZM123.187 14.8L98.4107 6.9167L98.3537 7.09589L98.2992 7.27588L123.187 14.8ZM119.539 24.112L95.9446 13.1888L95.8989 13.2876L95.8539 13.3868L119.539 24.112ZM113.971 34.48L91.8553 20.8086L91.8202 20.8654L91.7854 20.9223L113.971 34.48ZM106.963 44.464L86.6602 28.2219L86.5602 28.3469L86.4617 28.4732L106.963 44.464ZM98.9948 52.72L82.5306 32.5971L75.566 38.2954L73.6139 47.0798L98.9948 52.72ZM98.0348 57.808L72.3371 53.8545L72.2714 54.2814L72.22 54.7102L98.0348 57.808ZM98.8028 67.984L121.304 54.9571L98.8028 67.984ZM107.059 67.504L89.7853 48.0714L89.6028 48.2335L89.4235 48.3991L107.059 67.504ZM111.859 61.744L90.0458 47.595L89.9969 47.6703L89.9486 47.7459L111.859 61.744ZM115.795 54.448L128.03 31.5068L103.204 18.2661L91.9607 44.0588L115.795 54.448ZM117.235 55.216L140.76 66.2867L151.289 43.9118L129.47 32.2748L117.235 55.216ZM108.883 68.176L127.646 86.1739L127.737 86.0792L127.827 85.9837L108.883 68.176ZM99.8588 49.456L74.9084 42.143L118.244 67.8408L99.8588 49.456ZM106.387 41.776L127.353 57.1515L127.434 57.0419L127.513 56.9316L106.387 41.776ZM112.243 32.656L89.8678 19.4137L89.7668 19.5843L89.6684 19.7564L112.243 32.656ZM117.139 23.536L93.6833 12.3181L93.6833 12.3182L117.139 23.536ZM120.403 15.664L145.069 23.8859L145.102 23.7856L145.135 23.6851L120.403 15.664ZM121.267 8.944L99.6334 23.3662L101.061 25.5082L102.882 27.3287L121.267 8.944ZM118.195 11.152L97.5865 -4.70048L97.5403 -4.64045L97.4945 -4.58015L118.195 11.152ZM108.787 27.088L132.126 38.5455L132.126 38.5455L108.787 27.088ZM103.795 38.128L79.7947 28.128L79.7233 28.2994L79.6544 28.4718L103.795 38.128ZM99.1868 46.88C100.782 46.88 103.654 47.1567 106.959 48.7559C110.47 50.4547 113.3 53.0887 115.2 56.0886L71.2695 83.9114C78.3095 95.0273 89.6988 98.88 99.1868 98.88V46.88ZM115.325 56.2886C117.37 59.5821 117.507 62.3417 117.507 62.992H65.5068C65.5068 69.2743 66.7959 76.7059 71.1441 83.7114L115.325 56.2886ZM117.507 62.992C117.507 63.0529 117.504 62.7485 117.621 62.007C117.736 61.2749 117.948 60.2466 118.319 58.8891L68.1509 45.2069C66.6258 50.7989 65.5068 56.86 65.5068 62.992H117.507ZM118.319 58.8891C119.181 55.7258 120.361 52.2026 121.91 48.3031L73.5836 29.1049C71.4207 34.5494 69.5922 39.9222 68.1509 45.2069L118.319 58.8891ZM121.795 48.5869C123.458 44.5396 125.252 40.623 127.174 36.8338L80.7992 13.3102C78.2413 18.353 75.875 23.5244 73.6983 28.8211L121.795 48.5869ZM127.242 36.6996C129.2 32.7842 131.077 29.3931 132.863 26.4848L88.5503 -0.724844C85.856 3.66294 83.254 8.39977 80.7316 13.4444L127.242 36.6996ZM132.863 26.4848C134.708 23.481 135.967 21.7973 136.632 21.0166L97.0691 -12.7286C94.0229 -9.15728 91.1858 -5.01701 88.5503 -0.724844L132.863 26.4848ZM136.347 21.3462C136.661 20.9901 136.078 21.7345 134.658 22.7618C133.905 23.3064 132.514 24.2256 130.532 25.0576C128.558 25.8859 125.395 26.88 121.363 26.88V-25.12C112.678 -25.12 106.556 -21.0891 104.18 -19.3698C101.256 -17.2545 98.9608 -14.8781 97.355 -13.0582L136.347 21.3462ZM121.363 26.88C116.195 26.88 111.199 25.2298 107.1 22.2697C103.332 19.5487 101.25 16.4078 100.198 14.4546L145.983 -10.1986C142.786 -16.1356 134.887 -25.12 121.363 -25.12V26.88ZM100.633 15.2287C99.3663 13.058 98.9141 11.3154 98.7659 10.6482L149.528 -0.632205C148.867 -3.60336 147.711 -7.26605 145.549 -10.9727L100.633 15.2287ZM98.8379 10.963C98.7424 10.5572 98.5308 9.51438 98.5308 7.984H150.531C150.531 4.66161 150.063 1.63475 149.456 -0.94699L98.8379 10.963ZM98.5308 7.984C98.5308 7.30729 98.5737 6.79689 98.6083 6.48809C98.6434 6.17486 98.6787 5.99053 98.6859 5.95409C98.6955 5.90561 98.6376 6.20366 98.4107 6.9167L147.963 22.6833C149.181 18.855 150.531 13.6263 150.531 7.984H98.5308ZM98.2992 7.27588C97.9101 8.5631 97.1876 10.5039 95.9446 13.1888L143.133 35.0352C145.09 30.8081 146.799 26.5409 148.074 22.3241L98.2992 7.27588ZM95.8539 13.3868C94.8248 15.6596 93.5092 18.1331 91.8553 20.8086L136.086 48.1514C138.784 43.7869 141.181 39.3484 143.224 34.8372L95.8539 13.3868ZM91.7854 20.9223C90.2506 23.4338 88.5448 25.8661 86.6602 28.2219L127.265 60.7061C130.501 56.6619 133.467 52.4382 136.156 48.0377L91.7854 20.9223ZM86.4617 28.4732C85.0193 30.3224 83.6915 31.6473 82.5306 32.5971L115.459 72.8429C119.93 69.1847 123.914 65.0056 127.464 60.4548L86.4617 28.4732ZM73.6139 47.0798C73.1121 49.338 72.6844 51.5969 72.3371 53.8545L123.732 61.7615C123.897 60.6911 124.109 59.558 124.376 58.3602L73.6139 47.0798ZM72.22 54.7102C71.916 57.2429 71.7468 59.8168 71.7468 62.416H123.747C123.747 62.0712 123.769 61.5731 123.85 60.9058L72.22 54.7102ZM71.7468 62.416C71.7468 66.4226 72.1467 73.8342 76.3017 81.0109L121.304 54.9571C122.829 57.5908 123.361 59.8116 123.555 60.8353C123.761 61.9186 123.747 62.5227 123.747 62.416H71.7468ZM76.3017 81.0109C81.6661 90.2768 91.3089 95.808 101.971 95.808V43.808C105.103 43.808 109.1 44.5191 113.096 46.8198C117.094 49.1221 119.724 52.228 121.304 54.9571L76.3017 81.0109ZM101.971 95.808C112.057 95.808 119.759 91.1645 124.694 86.6089L89.4235 48.3991C91.0307 46.9155 95.3407 43.808 101.971 43.808V95.808ZM124.332 86.9366C128.139 83.5526 131.236 79.7059 133.769 75.7421L89.9486 47.7459C89.7476 48.0606 89.6189 48.2218 89.581 48.2672C89.5443 48.3113 89.6068 48.2301 89.7853 48.0714L124.332 86.9366ZM133.672 75.893C135.955 72.3728 137.951 68.6866 139.629 64.8372L91.9607 44.0588C91.4626 45.2014 90.8344 46.3792 90.0458 47.595L133.672 75.893ZM103.559 77.3892L104.999 78.1572L129.47 32.2748L128.03 31.5068L103.559 77.3892ZM93.7095 44.1453C91.9151 47.9584 90.5274 49.7418 89.9384 50.3683L127.827 85.9837C133.254 80.2102 137.434 73.3536 140.76 66.2867L93.7095 44.1453ZM90.119 50.1781C90.3136 49.9753 91.1853 49.1211 92.854 48.3116C94.6315 47.4492 96.8268 46.88 99.1868 46.88V98.88C111.452 98.88 121.074 93.0258 127.646 86.1739L90.119 50.1781ZM118.244 67.8408C121.529 64.5556 124.556 60.9666 127.353 57.1515L85.4202 26.4005C83.994 28.3454 82.6688 29.8764 81.474 31.0712L118.244 67.8408ZM127.513 56.9316C130.144 53.2633 132.58 49.4704 134.817 45.5556L89.6684 19.7564C88.3215 22.1136 86.8531 24.4007 85.2608 26.6204L127.513 56.9316ZM134.618 45.8983C136.819 42.1784 138.821 38.4624 140.594 34.7538L93.6833 12.3182C92.6409 14.4976 91.3782 16.8616 89.8678 19.4137L134.618 45.8983ZM140.594 34.7538C142.321 31.1443 143.867 27.4915 145.069 23.8859L95.737 7.44208C95.4028 8.44453 94.773 10.0397 93.6833 12.3181L140.594 34.7538ZM145.135 23.6851C146.106 20.689 147.555 15.6887 147.555 10.192H95.5548C95.5548 9.24197 95.624 8.51028 95.6795 8.06184C95.7363 7.60195 95.7973 7.29264 95.8245 7.16372C95.8726 6.93491 95.8587 7.0639 95.671 7.64288L145.135 23.6851ZM147.555 10.192C147.555 8.77683 147.468 6.37481 146.817 3.55367C146.247 1.08405 144.637 -4.45556 139.652 -9.44069L102.882 27.3287C98.0888 22.5356 96.6225 17.2999 96.1486 15.2463C95.5935 12.8412 95.5548 10.9672 95.5548 10.192H147.555ZM142.9 -5.47816C141.725 -7.24052 134.813 -17.344 120.883 -17.344V34.656C114.044 34.656 108.769 31.9988 105.475 29.528C102.387 27.2124 100.545 24.7333 99.6334 23.3662L142.9 -5.47816ZM120.883 -17.344C114.106 -17.344 109.218 -14.7647 107.2 -13.5721C104.842 -12.1791 103.123 -10.6902 102.135 -9.77263C100.14 -7.9199 98.5788 -5.99043 97.5865 -4.70048L138.803 27.0045C139.091 26.6304 138.618 27.3119 137.518 28.3326C136.978 28.8342 135.659 30.0111 133.654 31.1961C131.988 32.1807 127.403 34.656 120.883 34.656V-17.344ZM97.4945 -4.58015C95.4947 -1.94882 93.5199 1.09441 91.6257 4.22709L136.124 31.1329C137.558 28.7616 138.463 27.4528 138.895 26.8841L97.4945 -4.58015ZM91.6257 4.22709C89.4955 7.7501 87.4402 11.5712 85.4474 15.6305L132.126 38.5455C133.589 35.5648 134.926 33.1139 136.124 31.1329L91.6257 4.22709ZM85.4474 15.6305C83.4706 19.6573 81.5876 23.8251 79.7947 28.128L127.795 48.128C129.202 44.7509 130.647 41.5587 132.126 38.5455L85.4474 15.6305ZM79.6544 28.4718C77.8322 33.0273 76.2443 37.5852 74.9084 42.143L124.809 56.769C125.649 53.9028 126.685 50.9087 127.935 47.7842L79.6544 28.4718ZM116.498 72.304L98.1135 90.6888L116.498 72.304ZM115.25 53.776L91.2503 43.776L91.1971 43.9035L91.1454 44.0315L115.25 53.776ZM120.242 45.52L100.355 28.7725L100.355 28.7725L120.242 45.52ZM127.058 39.76L139.833 62.4054L140.05 62.2826L140.266 62.1555L127.058 39.76ZM139.826 39.856L117.778 53.636L117.778 53.636L139.826 39.856ZM139.922 49.552L117.987 35.5932L117.757 35.9554L117.538 36.325L139.922 49.552ZM133.682 50.224L121.447 27.2828L93.8204 42.017L113.38 66.4661L133.682 50.224ZM136.178 47.152L159.814 57.985L159.897 57.8047L159.976 57.6232L136.178 47.152ZM136.754 40.912L114.18 53.8116L115.315 55.7987L116.781 57.5568L136.754 40.912ZM129.746 42.544L113.169 22.5137L112.996 22.657L112.826 22.8033L129.746 42.544ZM124.658 48.496L102.937 34.206L102.805 34.4079L102.676 34.6122L124.658 48.496ZM120.818 56.176L96.5216 46.9201L96.4246 47.1747L96.333 47.4313L120.818 56.176ZM134.066 69.616L121.773 46.7058L121.654 46.7695L121.536 46.8344L134.066 69.616ZM146.738 54.352L162.591 33.7438L134.907 12.4486L122.449 45.0778L146.738 54.352ZM147.986 55.312L172.264 64.6183L179.201 46.5209L163.839 34.7038L147.986 55.312ZM141.938 65.68L161.738 82.5311L161.826 82.4284L161.912 82.3248L141.938 65.68ZM133.49 72.784L146.237 95.445L146.237 95.445L133.49 72.784ZM124.178 49.376C125.573 49.376 127.488 49.6185 129.61 50.4676C131.764 51.3289 133.545 52.5814 134.883 53.9192L98.1135 90.6888C105.356 97.9315 114.675 101.376 124.178 101.376V49.376ZM134.883 53.9192C137.035 56.0715 138.248 58.4057 138.86 60.2421C139.43 61.9525 139.426 63.0469 139.426 63.088H87.4262C87.4262 71.1918 89.4698 82.0451 98.1135 90.6888L134.883 53.9192ZM139.426 63.088C139.426 63.146 139.42 63.2442 139.397 63.3578C139.375 63.4706 139.351 63.5303 139.355 63.5205L91.1454 44.0315C88.6955 50.0917 87.4262 56.501 87.4262 63.088H139.426ZM139.25 63.776C139.559 63.0346 139.867 62.5799 140.13 62.2675L100.355 28.7725C96.5216 33.3241 93.5013 38.3734 91.2503 43.776L139.25 63.776ZM140.13 62.2675C140.273 62.098 140.323 62.0648 140.264 62.1146C140.202 62.1673 140.058 62.2784 139.833 62.4054L114.284 17.1146C108.804 20.206 104.184 24.2246 100.355 28.7725L140.13 62.2675ZM140.266 62.1555C139.531 62.5891 137.483 63.552 134.45 63.552V11.552C126.553 11.552 119.578 13.9868 113.851 17.3645L140.266 62.1555ZM134.45 63.552C133.391 63.552 130.772 63.4194 127.52 62.0258C123.933 60.4883 120.327 57.7143 117.778 53.636L161.874 26.076C154.235 13.8526 141.668 11.552 134.45 11.552V63.552ZM117.778 53.636C116.393 51.4194 115.266 48.294 115.266 44.656H167.266C167.266 37.6899 165.18 31.3646 161.874 26.076L117.778 53.636ZM115.266 44.656C115.266 42.14 115.937 38.8152 117.987 35.5932L161.857 63.5108C165.7 57.4728 167.266 50.884 167.266 44.656H115.266ZM117.538 36.325C118.833 34.1332 121.13 31.24 124.877 28.9507C128.748 26.5847 132.865 25.664 136.466 25.664V77.664C148.299 77.664 157.422 71.0452 162.306 62.779L117.538 36.325ZM136.466 25.664C139.901 25.664 143.517 26.4607 146.899 28.2103C150.191 29.913 152.491 32.1145 153.985 33.9819L113.38 66.4661C118.356 72.6864 126.387 77.664 136.466 77.664V25.664ZM145.918 73.1652C154 68.8544 157.97 62.0087 159.814 57.985L112.543 36.319C112.979 35.3673 115.284 30.5696 121.447 27.2828L145.918 73.1652ZM159.976 57.6232C161.792 53.4972 163.234 48.4124 163.234 42.64H111.234C111.234 39.6836 111.973 37.6068 112.38 36.6808L159.976 57.6232ZM163.234 42.64C163.234 38.9017 162.554 31.2579 156.728 24.2672L116.781 57.5568C111.595 51.3341 111.234 44.8423 111.234 42.64H163.234ZM159.329 28.0124C152.076 15.3195 139.251 14.24 135.122 14.24V66.24C132.658 66.24 120.921 65.6085 114.18 53.8116L159.329 28.0124ZM135.122 14.24C125.341 14.24 117.87 18.624 113.169 22.5137L146.323 62.5743C145.335 63.392 141.448 66.24 135.122 66.24V14.24ZM112.826 22.8033C108.815 26.241 105.576 30.1951 102.937 34.206L146.379 62.786C146.649 62.3762 146.827 62.1561 146.893 62.0783C146.959 62.0014 146.891 62.0927 146.667 62.2847L112.826 22.8033ZM102.676 34.6122C100.216 38.5061 98.1611 42.6164 96.5216 46.9201L145.115 65.4319C145.523 64.3596 146.028 63.3499 146.641 62.3798L102.676 34.6122ZM96.333 47.4313C94.5703 52.3666 93.3783 57.8708 93.3783 63.76H145.378C145.378 64.9132 145.146 65.3614 145.304 64.9207L96.333 47.4313ZM93.3783 63.76C93.3783 70.149 94.9814 76.4769 98.2974 82.2248L143.339 56.2392C144.735 58.6591 145.378 61.339 145.378 63.76H93.3783ZM98.2974 82.2248C105.763 95.1657 118.795 97.728 126.386 97.728V45.728C127.454 45.728 130.189 45.865 133.566 47.3788C137.318 49.061 140.919 52.0449 143.339 56.2392L98.2974 82.2248ZM126.386 97.728C133.914 97.728 140.746 95.615 146.596 92.3976L121.536 46.8344C122.266 46.433 123.979 45.728 126.386 45.728V97.728ZM146.36 92.5262C152.244 89.3688 157.127 85.1459 161.137 80.4488L121.588 46.6872C121.349 46.9672 121.233 47.0578 121.265 47.0311C121.282 47.0177 121.332 46.9769 121.419 46.9181C121.506 46.859 121.624 46.7856 121.773 46.7058L146.36 92.5262ZM161.137 80.4488C165.475 75.3669 168.722 69.6658 171.028 63.6262L122.449 45.0778C122.067 46.0782 121.729 46.5211 121.588 46.6872L161.137 80.4488ZM130.886 74.9602L132.134 75.9202L163.839 34.7038L162.591 33.7438L130.886 74.9602ZM123.709 46.0057C123.229 47.2566 122.645 48.2188 121.964 49.0352L161.912 82.3248C166.352 76.9972 169.799 71.0474 172.264 64.6183L123.709 46.0057ZM122.138 48.8289C121.33 49.7792 120.837 50.0704 120.743 50.123L146.237 95.445C152.287 92.0416 157.427 87.5968 161.738 82.5311L122.138 48.8289ZM120.743 50.123C120.86 50.0572 121.246 49.8585 121.886 49.6802C122.542 49.4978 123.326 49.376 124.178 49.376V101.376C132.311 101.376 139.765 99.0857 146.237 95.445L120.743 50.123ZM145.706 70.48L167.339 56.0578L167.212 55.868L167.082 55.6805L145.706 70.48ZM147.434 52.24L125.003 39.0913L124.832 39.3835L124.668 39.68L147.434 52.24ZM150.986 47.728L134.065 27.9873L133.826 28.192L133.592 28.4023L150.986 47.728ZM155.978 46.192L146.321 70.3324L148.931 71.3762L151.703 71.8382L155.978 46.192ZM157.034 46.48L174.307 65.9127L205.75 37.9636L166.69 22.3396L157.034 46.48ZM154.922 49.36L132.537 36.133L132.441 36.296L132.347 36.4604L154.922 49.36ZM152.714 54.064L176.792 63.8737L176.853 63.7227L176.913 63.571L152.714 54.064ZM150.89 59.248L125.961 51.8617L125.834 52.2903L125.722 52.723L150.89 59.248ZM151.178 67.888L130.02 83.0002L130.288 83.3752L130.569 83.7405L151.178 67.888ZM158.474 67.024L174.188 87.738L174.411 87.5688L174.63 87.3949L158.474 67.024ZM163.946 61.456L184.248 77.6981L200.281 57.6563L180.449 41.3651L163.946 61.456ZM159.722 55.696L135.537 65.2423L135.691 65.6316L135.857 66.0157L159.722 55.696ZM159.338 42.352L135.313 32.4109L135.165 32.7688L135.028 33.131L159.338 42.352ZM162.602 37.936L178.499 58.5094L178.786 58.2881L179.066 58.0589L162.602 37.936ZM172.97 38.32L151.034 52.2788L151.034 52.2788L172.97 38.32ZM172.49 51.952L196.594 61.6965L196.63 61.609L196.664 61.5213L172.49 51.952ZM167.882 60.688L146.173 46.3799L130.739 69.7962L155.255 83.4161L167.882 60.688ZM174.986 61.072L182.457 85.9755L183.02 85.8065L183.575 85.6123L174.986 61.072ZM178.73 58.864L162.487 38.5614L162.232 38.7657L161.982 38.9763L178.73 58.864ZM181.802 54.736L198.446 34.7622L172.016 12.7367L158.042 44.1764L181.802 54.736ZM182.954 55.696L206.878 65.8764L214.444 48.0941L199.598 35.7222L182.954 55.696ZM177.482 62.128L189.617 85.122L189.731 85.0618L189.845 85.0004L177.482 62.128ZM168.458 63.76L162.152 88.9837L163.159 89.2355L164.183 89.4062L168.458 63.76ZM166.25 62.992L177.008 39.3225L158.055 30.7075L145.505 47.3183L166.25 62.992ZM159.049 70.192L143.696 49.2092L143.572 49.2999L143.449 49.392L159.049 70.192ZM165.674 58.96L145.863 75.7989L168.043 101.893L187.217 73.5163L165.674 58.96ZM169.609 51.568L145.592 41.6096L145.53 41.7603L145.469 41.9118L169.609 51.568ZM170.378 40.144L147.803 53.0436L148.361 54.0194L149.001 54.9435L170.378 40.144ZM164.426 41.584L185.484 56.8333L185.484 56.8332L164.426 41.584ZM163.178 54.256L138.055 60.9552L138.19 61.4617L138.346 61.9624L163.178 54.256ZM151.562 47.072C152.804 47.072 155.408 47.2551 158.557 48.6489C161.965 50.1572 165.096 52.6929 167.339 56.0578L124.072 84.9022C131.56 96.1343 143.255 99.072 151.562 99.072V47.072ZM167.082 55.6805C169.505 59.1797 169.977 62.5658 169.977 64.336H117.977C117.977 70.9702 119.602 78.4523 124.329 85.2795L167.082 55.6805ZM169.977 64.336C169.977 65.1754 169.839 65.6706 169.82 65.7322L120.055 50.6518C118.756 54.9374 117.977 59.5286 117.977 64.336H169.977ZM169.82 65.7322C169.954 65.2915 170.09 64.9974 170.199 64.8L124.668 39.68C122.729 43.1946 121.201 46.8685 120.055 50.6518L169.82 65.7322ZM169.864 65.3887C169.922 65.2893 169.508 66.0367 168.379 67.0537L133.592 28.4023C129.903 31.7233 127.121 35.4787 125.003 39.0913L169.864 65.3887ZM167.906 67.4687C166.054 69.0565 161.621 72 155.018 72V20C145.726 20 138.605 24.0955 134.065 27.9873L167.906 67.4687ZM155.018 72C151.782 72 148.834 71.3375 146.321 70.3324L165.634 22.0516C162.481 20.7905 158.893 20 155.018 20V72ZM151.703 71.8382C150.477 71.6339 148.998 71.2688 147.377 70.6204L166.69 22.3396C164.429 21.4352 162.246 20.8781 160.252 20.5458L151.703 71.8382ZM139.76 27.0473C135.961 30.4244 133.559 34.4049 132.537 36.133L177.306 62.587C177.433 62.3705 177.343 62.5459 177.04 62.9595C176.879 63.1785 176.599 63.5472 176.197 64.0086C175.809 64.4556 175.179 65.1373 174.307 65.9127L139.76 27.0473ZM132.347 36.4604C130.828 39.1194 129.571 41.8652 128.514 44.557L176.913 63.571C177.083 63.139 177.224 62.8172 177.33 62.5916C177.382 62.4801 177.423 62.3975 177.452 62.3412C177.481 62.2848 177.496 62.2586 177.496 62.2596L132.347 36.4604ZM128.635 44.2543C127.619 46.7478 126.724 49.2841 125.961 51.8617L175.818 66.6343C176.079 65.7559 176.4 64.8362 176.792 63.8737L128.635 44.2543ZM125.722 52.723C124.953 55.6866 124.218 59.4818 124.218 63.664H176.218C176.218 64.6174 176.133 65.2766 176.09 65.5595C176.045 65.8555 176.014 65.9388 176.057 65.773L125.722 52.723ZM124.218 63.664C124.218 67.4265 124.647 75.4778 130.02 83.0002L172.335 52.7758C174.539 55.8616 175.433 58.7338 175.811 60.3979C176.195 62.0864 176.218 63.2783 176.218 63.664H124.218ZM130.569 83.7405C135.986 90.7828 144.343 95.136 153.674 95.136V43.136C156.785 43.136 160.363 43.7956 163.909 45.5689C167.435 47.3319 170.02 49.7395 171.786 52.0355L130.569 83.7405ZM153.674 95.136C163.54 95.136 170.781 90.3225 174.188 87.738L142.759 46.31C142.952 46.164 143.85 45.4965 145.41 44.8098C146.962 44.1273 149.831 43.136 153.674 43.136V95.136ZM174.63 87.3949C178.3 84.484 181.48 81.1576 184.248 77.6981L143.643 45.2139C142.827 46.2344 142.359 46.62 142.317 46.6531L174.63 87.3949ZM180.449 41.3651C182.198 42.8024 183.156 44.3813 183.586 45.3763L135.857 66.0157C138.335 71.7467 142.109 77.1656 147.442 81.5469L180.449 41.3651ZM183.906 46.1497C184.088 46.6108 184.282 47.378 184.282 48.304H132.282C132.282 54.2219 133.435 59.9172 135.537 65.2423L183.906 46.1497ZM184.282 48.304C184.282 49.1394 184.131 50.2989 183.647 51.573L135.028 33.131C133.136 38.1171 132.282 43.2446 132.282 48.304H184.282ZM183.362 52.2931C182.623 54.0793 181.125 56.4803 178.499 58.5094L146.704 17.3626C141.262 21.5677 137.588 26.9127 135.313 32.4109L183.362 52.2931ZM179.066 58.0589C177.398 59.4232 175.438 60.5297 173.291 61.2589C171.172 61.9783 169.237 62.208 167.69 62.208V10.208C160.285 10.208 152.622 12.5078 146.137 17.8131L179.066 58.0589ZM167.69 62.208C166.75 62.208 157.199 61.9668 151.034 52.2788L194.905 24.3612C186.948 11.8572 173.877 10.208 167.69 10.208V62.208ZM151.034 52.2788C148.653 48.537 148.314 45.1292 148.314 43.6H200.314C200.314 37.8468 199.078 30.919 194.905 24.3612L151.034 52.2788ZM148.314 43.6C148.314 42.742 148.417 42.1917 148.456 42.0126C148.495 41.8371 148.485 41.9512 148.315 42.3827L196.664 61.5213C198.717 56.3351 200.314 50.2442 200.314 43.6H148.314ZM148.385 42.2075C147.839 43.557 147.118 44.9453 146.173 46.3799L189.59 74.9961C192.357 70.7987 194.708 66.363 196.594 61.6965L148.385 42.2075ZM155.255 83.4161C160.15 86.1358 165.697 87.648 171.53 87.648V35.648C174.802 35.648 177.917 36.5202 180.508 37.9599L155.255 83.4161ZM171.53 87.648C175.719 87.648 179.448 86.8782 182.457 85.9755L167.514 36.1685C167.963 36.0338 169.388 35.648 171.53 35.648V87.648ZM183.575 85.6123C188.299 83.9587 192.255 81.4653 195.477 78.7517L161.982 38.9763C162.772 38.3107 164.232 37.2893 166.396 36.5317L183.575 85.6123ZM194.972 79.1666C199.967 75.1699 203.363 70.2395 205.561 65.2956L158.042 44.1764C158.704 42.6885 160.052 40.5101 162.487 38.5614L194.972 79.1666ZM165.157 74.7098L166.309 75.6698L199.598 35.7222L198.446 34.7622L165.157 74.7098ZM159.029 45.5156C159.545 44.3053 161.266 41.3378 165.118 39.2556L189.845 85.0004C198.433 80.3582 203.803 73.1027 206.878 65.8764L159.029 45.5156ZM165.346 39.134C165.922 38.83 167.864 37.952 170.858 37.952V89.952C178.075 89.952 184.433 87.858 189.617 85.122L165.346 39.134ZM170.858 37.952C171.361 37.952 171.995 37.9909 172.732 38.1138L164.183 89.4062C166.456 89.7851 168.69 89.952 170.858 89.952V37.952ZM174.763 38.5363C175.488 38.7173 176.245 38.9753 177.008 39.3225L155.491 86.6615C157.662 87.6487 159.891 88.4187 162.152 88.9837L174.763 38.5363ZM145.505 47.3183C144.691 48.3955 144.062 48.9413 143.696 49.2092L174.403 91.1748C179.285 87.6027 183.456 83.3485 186.994 78.6657L145.505 47.3183ZM143.449 49.392C143.972 49 146.822 47.072 151.562 47.072V99.072C161.165 99.072 169.007 95.224 174.65 90.992L143.449 49.392ZM187.217 73.5163C189.817 69.6682 192.013 65.5671 193.75 61.2242L145.469 41.9118C145.158 42.6889 144.73 43.5158 144.13 44.4037L187.217 73.5163ZM193.627 61.5264C195.728 56.4588 197.242 50.5931 197.242 44.176H145.242C145.242 42.3668 145.667 41.4292 145.592 41.6096L193.627 61.5264ZM197.242 44.176C197.242 40.8447 196.955 32.8571 191.755 25.3445L149.001 54.9435C146.772 51.7245 145.935 48.7767 145.603 47.2238C145.256 45.6072 145.242 44.4878 145.242 44.176H197.242ZM192.952 27.2444C189.113 20.5257 180.881 12.8 168.362 12.8V64.8C163.809 64.8 159.137 63.4823 155.067 60.7693C151.244 58.2205 149.01 55.156 147.803 53.0436L192.952 27.2444ZM168.362 12.8C153.959 12.8 145.874 22.8729 143.367 26.3348L185.484 56.8332C185.135 57.3155 183.866 59.0011 181.432 60.7228C178.826 62.5656 174.334 64.8 168.362 64.8V12.8ZM143.367 26.3347C138.137 33.5577 136.41 41.5735 136.41 48.592H188.41C188.41 49.9785 188.026 53.3223 185.484 56.8333L143.367 26.3347ZM136.41 48.592C136.41 52.8634 137.002 57.0034 138.055 60.9552L188.3 47.5568C188.329 47.6686 188.41 48.0326 188.41 48.592H136.41ZM138.346 61.9624C139.8 66.6494 142.174 71.4584 145.863 75.7989L185.484 42.1211C186.997 43.9016 187.707 45.5746 188.009 46.5496L138.346 61.9624ZM223.488 70.864L244.515 55.5715L244.345 55.3373L244.169 55.1069L223.488 70.864ZM222.624 61.168L197.861 53.2438L197.716 53.6982L197.587 54.1576L222.624 61.168ZM224.064 56.464L199.398 48.2421L199.242 48.7103L199.104 49.184L224.064 56.464ZM223.968 49.648L241.241 30.2154L241.241 30.2154L223.968 49.648ZM216.768 52.624L196.16 36.7715L196.031 36.9396L195.904 37.1097L216.768 52.624ZM209.472 63.184L231.105 77.6062L231.129 77.571L231.152 77.5357L209.472 63.184ZM206.88 67.888L230.516 78.721L230.598 78.5407L230.678 78.3592L206.88 67.888ZM204.864 72.112V98.112H220.933L228.119 83.7396L204.864 72.112ZM202.944 71.92L198.67 97.5662L198.67 97.5662L202.944 71.92ZM200.832 71.248L212.46 47.9929L211.931 47.7288L211.392 47.4889L200.832 71.248ZM200.832 67.024L176.451 57.9938L176.354 58.2555L176.262 58.5191L200.832 67.024ZM202.944 61.072L178.49 52.2412L178.418 52.4398L178.349 52.6396L202.944 61.072ZM205.056 54.16L179.957 47.3764L179.892 47.6146L179.832 47.8541L205.056 54.16ZM205.44 45.52L181.77 56.2789L182.383 57.627L183.145 58.8969L205.44 45.52ZM198.528 47.056L215.236 66.977L215.422 66.8213L215.604 66.6621L198.528 47.056ZM192.384 53.68L213.01 69.5093L213.01 69.5093L192.384 53.68ZM186.336 62.8L163.815 49.8072L163.775 49.8776L163.734 49.9481L186.336 62.8ZM181.824 72.592V98.592H200.219L206.342 81.2453L181.824 72.592ZM179.712 72.304L185.558 46.9698L185.558 46.9698L179.712 72.304ZM177.6 71.536L190.227 48.8079L189.733 48.5335L189.228 48.2809L177.6 71.536ZM177.696 67.216L202.006 76.437L202.194 75.9411L202.362 75.4379L177.696 67.216ZM180 60.4L204.605 68.8017L204.726 68.4464L204.837 68.0878L180 60.4ZM182.208 52.24L157.019 45.7963L156.948 46.0727L156.884 46.3506L182.208 52.24ZM183.264 44.944L163.523 28.0234L157.264 35.326V44.944H183.264ZM185.088 43.6L197.415 66.4922L197.415 66.4922L185.088 43.6ZM189.6 43.6L169.859 60.5206L170.509 61.2787L171.215 61.9848L189.6 43.6ZM189.504 49.744L164.28 43.4381L164.208 43.7269L164.143 44.0172L189.504 49.744ZM187.776 56.368L162.801 49.1385L209.824 70.148L187.776 56.368ZM192.096 50.128L171.443 34.3343L171.407 34.3809L171.372 34.4277L192.096 50.128ZM197.28 44.176L178.895 25.7912L178.895 25.7912L197.28 44.176ZM202.656 39.856L216.149 62.0805L216.259 62.0141L216.367 61.9466L202.656 39.856ZM212.064 40.336L188.609 51.5538L188.907 52.1784L189.239 52.7861L212.064 40.336ZM212.64 50.512L187.217 45.0642L187.141 45.42L187.075 45.7777L212.64 50.512ZM211.488 55.408L236.362 62.9782L236.406 62.8334L236.448 62.688L211.488 55.408ZM210.24 58.96L186.342 48.7181L232.996 71.5358L210.24 58.96ZM214.656 51.952L193.578 36.7292L193.538 36.7844L193.499 36.8398L214.656 51.952ZM220.032 46.384L235.407 67.3505L235.631 67.1865L235.851 67.0178L220.032 46.384ZM230.4 46L208.417 59.8838L208.672 60.2876L208.942 60.6818L230.4 46ZM230.784 55.792L255.753 63.0411L255.753 63.0411L230.784 55.792ZM228.96 61.552L204.38 53.0762L204.248 53.459L204.128 53.8456L228.96 61.552ZM228.672 68.656L205.847 81.1061L206.541 82.3786L207.372 83.566L228.672 68.656ZM235.968 67.216L217.226 49.1952L217.219 49.2027L217.212 49.2102L235.968 67.216ZM240.384 61.264L262.842 74.3646L262.92 74.2316L262.996 74.0978L240.384 61.264ZM243.84 54.448L263.581 37.5274L236.715 6.18419L220.052 43.9534L243.84 54.448ZM244.992 55.792L269.289 65.0479L274.791 50.6056L264.733 38.8714L244.992 55.792ZM241.056 63.856L263.255 77.3918L263.327 77.2736L263.398 77.1546L241.056 63.856ZM235.392 70.384L219.223 50.0231L219.075 50.141L218.928 50.2611L235.392 70.384ZM228.384 46.976C229.916 46.976 232.614 47.2095 235.778 48.5745C239.149 50.0287 242.225 52.4231 244.515 55.5715L202.461 86.1565C209.744 96.1705 220.459 98.976 228.384 98.976V46.976ZM244.169 55.1069C247.058 58.8981 247.952 63.0081 247.952 65.968H195.952C195.952 72.7679 197.87 80.1419 202.807 86.6211L244.169 55.1069ZM247.952 65.968C247.952 66.8276 247.827 67.5846 247.661 68.1784L197.587 54.1576C196.525 57.9514 195.952 61.9084 195.952 65.968H247.952ZM247.387 69.0922C247.964 67.2888 248.51 65.5059 249.024 63.744L199.104 49.184C198.722 50.4941 198.308 51.8472 197.861 53.2438L247.387 69.0922ZM248.73 64.6859C249.851 61.3219 250.832 57.099 250.832 52.336H198.832C198.832 50.005 199.301 48.5341 199.398 48.2421L248.73 64.6859ZM250.832 52.336C250.832 48.3635 250.127 38.1135 241.241 30.2154L206.695 69.0806C198.961 62.2065 198.832 53.7485 198.832 52.336H250.832ZM241.241 30.2154C236.393 25.9058 229.743 22.88 222.048 22.88V74.88C215.761 74.88 210.391 72.3662 206.695 69.0806L241.241 30.2154ZM222.048 22.88C207.241 22.88 198.66 33.5213 196.16 36.7715L237.376 68.4765C237.338 68.5261 237.124 68.8009 236.721 69.2116C236.325 69.6137 235.615 70.2819 234.567 71.0251C232.557 72.4505 228.227 74.88 222.048 74.88V22.88ZM195.904 37.1097C193.632 40.1652 190.899 44.1389 187.792 48.8323L231.152 77.5357C234.061 73.1411 236.192 70.0748 237.632 68.1383L195.904 37.1097ZM187.839 48.7618C186.027 51.4801 184.425 54.3651 183.082 57.4168L230.678 78.3592C230.743 78.2109 230.869 77.9599 231.105 77.6062L187.839 48.7618ZM183.244 57.055C182.642 58.3701 182.097 59.5089 181.609 60.4844L228.119 83.7396C228.911 82.1551 229.71 80.4779 230.516 78.721L183.244 57.055ZM204.864 46.112C205.657 46.112 206.254 46.1597 206.587 46.193C206.934 46.2278 207.154 46.2631 207.218 46.2738L198.67 97.5662C200.203 97.8218 202.387 98.112 204.864 98.112V46.112ZM207.218 46.2738C208.783 46.5345 210.587 47.0564 212.46 47.9929L189.204 94.5031C192.357 96.0796 195.569 97.0495 198.67 97.5662L207.218 46.2738ZM211.392 47.4889C213.465 48.4105 217.08 50.384 220.307 54.3278C223.901 58.7201 225.968 64.3154 225.968 70.192H173.968C173.968 85.0501 184.782 92.5667 190.272 95.0071L211.392 47.4889ZM225.968 70.192C225.968 71.4568 225.871 72.4692 225.796 73.0933C225.717 73.7519 225.625 74.2802 225.558 74.6319C225.428 75.3115 225.304 75.773 225.268 75.9051C225.196 76.1684 225.205 76.0984 225.402 75.5289L176.262 58.5191C175.883 59.6136 175.46 60.9036 175.1 62.2229C174.972 62.6933 173.968 66.1074 173.968 70.192H225.968ZM225.213 76.0542C225.944 74.0814 226.72 71.8915 227.539 69.5044L178.349 52.6396C177.632 54.7325 177 56.5106 176.451 57.9938L225.213 76.0542ZM227.398 69.9028C228.52 66.7966 229.484 63.6503 230.28 60.4659L179.832 47.8541C179.476 49.2777 179.032 50.7394 178.49 52.2412L227.398 69.9028ZM230.155 60.9436C231.139 57.3048 232.016 52.8712 232.016 48.112H180.016C180.016 47.6997 180.036 47.3824 180.054 47.1736C180.072 46.9638 180.091 46.835 180.097 46.796C180.108 46.732 180.082 46.9128 179.957 47.3764L230.155 60.9436ZM232.016 48.112C232.016 44.3373 231.408 38.2651 227.735 32.1431L183.145 58.8969C180.24 54.0549 180.016 49.7107 180.016 48.112H232.016ZM229.11 34.7611C226.947 30.0035 223.23 25.3872 217.771 22.2269C212.56 19.21 207.402 18.464 203.616 18.464V70.464C200.726 70.464 196.32 69.894 191.717 67.2291C186.866 64.4208 183.613 60.3325 181.77 56.2789L229.11 34.7611ZM203.616 18.464C192.39 18.464 184.55 24.7513 181.452 27.4499L215.604 66.6621C215.554 66.7063 214.706 67.456 213.09 68.279C211.508 69.085 208.198 70.464 203.616 70.464V18.464ZM181.82 27.135C177.991 30.3468 174.661 34.0683 171.758 37.8507L213.01 69.5093C214.331 67.7877 215.097 67.0932 215.236 66.977L181.82 27.135ZM171.758 37.8507C168.884 41.5958 166.244 45.5968 163.815 49.8072L208.857 75.7928C210.268 73.3472 211.66 71.2682 213.01 69.5093L171.758 37.8507ZM163.734 49.9481C161.18 54.4402 159.012 59.1046 157.306 63.9387L206.342 81.2453C206.94 79.5514 207.78 77.6878 208.938 75.6519L163.734 49.9481ZM181.824 46.592C182.945 46.592 183.822 46.6827 184.377 46.7584C184.946 46.836 185.351 46.9221 185.558 46.9698L173.866 97.6382C175.79 98.0822 178.583 98.592 181.824 98.592V46.592ZM185.558 46.9698C186.437 47.1727 188.155 47.6571 190.227 48.8079L164.973 94.2641C168.197 96.0549 171.323 97.0513 173.866 97.6382L185.558 46.9698ZM189.228 48.2809C190.131 48.7326 192.644 50.0505 195.265 52.6712C197.939 55.3451 202.64 61.4083 202.64 70.576H150.64C150.64 80.0637 155.501 86.4469 158.495 89.4408C161.436 92.3815 164.429 94.0194 165.972 94.7911L189.228 48.2809ZM202.64 70.576C202.64 72.3405 202.453 73.7109 202.35 74.3782C202.232 75.1374 202.103 75.7286 202.022 76.075C201.864 76.75 201.725 77.1878 201.708 77.2435C201.665 77.3782 201.729 77.1674 202.006 76.437L153.386 57.995C152.959 59.1206 152.495 60.3978 152.1 61.6525C151.907 62.2682 151.636 63.174 151.39 64.225C151.251 64.8177 150.64 67.3601 150.64 70.576H202.64ZM202.362 75.4379C202.976 73.5952 203.723 71.386 204.605 68.8017L155.395 51.9983C154.485 54.662 153.696 56.9968 153.03 58.9941L202.362 75.4379ZM204.837 68.0878C205.854 64.8039 206.752 61.484 207.532 58.1294L156.884 46.3506C156.384 48.5 155.81 50.6201 155.163 52.7122L204.837 68.0878ZM207.397 58.6837C208.467 54.499 209.264 49.8287 209.264 44.944H157.264C157.264 44.5718 157.294 44.4508 157.268 44.6276C157.243 44.8003 157.176 45.1818 157.019 45.7963L207.397 58.6837ZM203.005 61.8646C201.616 63.485 200.296 64.5661 199.431 65.2035C198.542 65.8586 197.821 66.2735 197.415 66.4922L172.761 20.7078C170.601 21.8708 166.863 24.1269 163.523 28.0234L203.005 61.8646ZM197.415 66.4922C194.672 67.969 191.323 68.928 187.68 68.928V16.928C182.245 16.928 177.168 18.335 172.761 20.7078L197.415 66.4922ZM187.68 68.928C184.953 68.928 176.515 68.286 169.859 60.5206L209.341 26.6794C201.917 18.018 192.199 16.928 187.68 16.928V68.928ZM171.215 61.9848C165.784 56.554 164.272 49.9906 164.272 45.424H216.272C216.272 39.3214 214.312 31.542 207.985 25.2152L171.215 61.9848ZM164.272 45.424C164.272 44.3763 164.348 43.6041 164.387 43.2508C164.432 42.8595 164.474 42.6194 164.481 42.5771C164.493 42.5134 164.449 42.7646 164.28 43.4381L214.728 56.0499C215.204 54.143 216.272 49.8427 216.272 45.424H164.272ZM164.143 44.0172C163.832 45.3924 163.395 47.0891 162.801 49.1385L212.751 63.5975C213.565 60.7829 214.28 58.0636 214.865 55.4708L164.143 44.0172ZM209.824 70.148C210.654 68.8193 211.646 67.3791 212.82 65.8283L171.372 34.4277C169.346 37.1009 167.458 39.8207 165.728 42.588L209.824 70.148ZM212.749 65.9217C213.771 64.586 214.748 63.478 215.665 62.5608L178.895 25.7912C176.228 28.458 173.749 31.318 171.443 34.3343L212.749 65.9217ZM215.665 62.5608C215.962 62.2633 216.161 62.0941 216.254 62.0192C216.347 61.9447 216.314 61.9806 216.149 62.0805L189.163 17.6315C185.269 19.9957 181.864 22.8227 178.895 25.7912L215.665 62.5608ZM216.367 61.9466C215.184 62.6811 212.278 64.128 208.032 64.128V12.128C200.33 12.128 193.84 14.7269 188.945 17.7654L216.367 61.9466ZM208.032 64.128C205.91 64.128 202.161 63.7414 198.04 61.4845C193.614 59.0608 190.446 55.3961 188.609 51.5538L235.519 29.1182C232.978 23.8039 228.786 19.0352 223.016 15.8755C217.551 12.8826 212.138 12.128 208.032 12.128V64.128ZM189.239 52.7861C187.485 49.5717 187.216 46.7728 187.216 45.424H239.216C239.216 40.1072 238.179 33.9163 234.889 27.8859L189.239 52.7861ZM187.216 45.424C187.216 44.951 187.272 44.8097 187.217 45.0642L238.063 55.9598C238.776 52.6303 239.216 49.097 239.216 45.424H187.216ZM187.075 45.7777C186.898 46.73 186.709 47.5067 186.528 48.128L236.448 62.688C237.163 60.2373 237.742 57.75 238.205 55.2463L187.075 45.7777ZM186.614 47.8378C186.475 48.2971 186.373 48.6033 186.31 48.7814C186.243 48.9718 186.251 48.9298 186.342 48.7181L234.138 69.2019C235.045 67.0856 235.775 64.904 236.362 62.9782L186.614 47.8378ZM232.996 71.5358C233.861 69.9711 234.8 68.4826 235.813 67.0642L193.499 36.8398C191.312 39.9014 189.307 43.0849 187.484 46.3842L232.996 71.5358ZM235.734 67.1748C235.915 66.924 235.995 66.8473 235.952 66.8915C235.908 66.9379 235.732 67.1128 235.407 67.3505L204.657 25.4175C200.171 28.7066 196.533 32.6379 193.578 36.7292L235.734 67.1748ZM235.851 67.0178C234.917 67.7343 233.568 68.561 231.801 69.1959C230.005 69.8416 228.086 70.176 226.176 70.176V18.176C217.64 18.176 210.136 21.2087 204.213 25.7502L235.851 67.0178ZM226.176 70.176C224.781 70.176 221.906 69.9895 218.461 68.5016C214.692 66.8742 211.02 64.0043 208.417 59.8838L252.383 32.1162C245 20.4263 233.015 18.176 226.176 18.176V70.176ZM208.942 60.6818C206.442 57.0277 205.648 53.1932 205.648 50.32H257.648C257.648 44.1188 256.022 37.4043 251.858 31.3182L208.942 60.6818ZM205.648 50.32C205.648 49.0234 205.865 48.3715 205.815 48.5429L255.753 63.0411C256.855 59.2445 257.648 54.9446 257.648 50.32H205.648ZM205.815 48.5429C205.352 50.1362 204.873 51.6463 204.38 53.0762L253.54 70.0278C254.327 67.7457 255.064 65.4158 255.753 63.0411L205.815 48.5429ZM204.128 53.8456C203.091 57.1876 202.096 61.5146 202.096 66.352H254.096C254.096 67.5053 253.976 68.3338 253.901 68.75C253.824 69.1767 253.76 69.359 253.792 69.2584L204.128 53.8456ZM202.096 66.352C202.096 71.3648 203.3 76.4369 205.847 81.1061L251.497 56.2059C253.276 59.4671 254.096 63.0032 254.096 66.352H202.096ZM207.372 83.566C214.437 93.6593 225.004 95.616 230.976 95.616V43.616C234.772 43.616 243.803 44.9327 249.972 53.746L207.372 83.566ZM230.976 95.616C241.462 95.616 249.528 90.6342 254.724 85.2218L217.212 49.2102C218.175 48.2073 219.833 46.7708 222.302 45.5834C224.876 44.3463 227.852 43.616 230.976 43.616V95.616ZM254.71 85.2368C257.94 81.877 260.616 78.1812 262.842 74.3646L217.926 48.1634C217.464 48.9548 217.196 49.227 217.226 49.1952L254.71 85.2368ZM262.996 74.0978C264.711 71.0765 266.269 68.0221 267.628 64.9426L220.052 43.9534C219.491 45.2259 218.745 46.7155 217.772 48.4302L262.996 74.0978ZM224.099 71.3686L225.251 72.7126L264.733 38.8714L263.581 37.5274L224.099 71.3686ZM220.695 46.5361C220.249 47.707 219.613 49.0472 218.714 50.5574L263.398 77.1546C265.699 73.2888 267.687 69.253 269.289 65.0479L220.695 46.5361ZM218.857 50.3202C218.762 50.4768 218.735 50.4932 218.802 50.4168C218.871 50.3374 219.009 50.1929 219.223 50.0231L251.561 90.7449C256.374 86.9231 260.23 82.3518 263.255 77.3918L218.857 50.3202ZM218.928 50.2611C219.888 49.4756 221.258 48.6003 223.037 47.9425C224.836 47.2768 226.673 46.976 228.384 46.976V98.976C237.359 98.976 245.429 95.7657 251.856 90.5069L218.928 50.2611ZM243.599 70.96L224.36 88.4495L224.373 88.4636L224.386 88.4776L243.599 70.96ZM242.831 53.968L219.21 43.1025L219.119 43.2989L219.032 43.4968L242.831 53.968ZM248.591 44.944L228.913 27.9499L228.801 28.0794L228.691 28.2104L248.591 44.944ZM256.559 38.128L269.935 60.4228L270.116 60.3146L270.294 60.2035L256.559 38.128ZM269.135 36.592L255.251 58.5747L255.502 58.7337L255.758 58.8868L269.135 36.592ZM268.847 48.208L247.311 33.64L247.262 33.7127L247.213 33.7858L268.847 48.208ZM263.183 53.872L248.234 32.599L248.096 32.6958L247.96 32.7943L263.183 53.872ZM255.503 58L264.57 82.3678L264.722 82.3112L264.873 82.2528L255.503 58ZM247.247 59.92L244.838 34.0318L225.55 35.826L221.751 54.821L247.247 59.92ZM246.959 61.744L272.799 64.6152L272.799 64.6152L246.959 61.744ZM247.151 66.256L221.655 71.355L221.817 72.161L222.028 72.9552L247.151 66.256ZM248.398 68.944L227.022 83.7435L227.302 84.1492L227.599 84.544L248.398 68.944ZM250.703 70.768L239.707 94.3288L239.993 94.4619L240.281 94.5881L250.703 70.768ZM262.607 69.136L275.506 91.7103L275.707 91.5957L275.905 91.4776L262.607 69.136ZM270.095 62.896L289.42 80.2891L289.42 80.2891L270.095 62.896ZM275.951 54.448L291.55 33.648L267.042 15.2668L252.891 42.4377L275.951 54.448ZM277.103 55.312L300.812 65.9815L309.354 47.0005L292.702 34.512L277.103 55.312ZM270.479 65.296L251.671 47.3436L251.563 47.4567L251.457 47.5711L270.479 65.296ZM261.839 71.824L250.402 48.4744L250.113 48.6158L249.828 48.7642L261.839 71.824ZM247.727 58.096L222.675 51.1373L209.599 98.2116L255.948 82.7618L247.727 58.096ZM253.583 55.6L265.21 78.8551L265.48 78.7199L265.748 78.5785L253.583 55.6ZM259.823 51.568L244.223 30.768L244.063 30.8874L243.906 31.0092L259.823 51.568ZM264.815 46.48L243.756 31.2308L243.581 31.4729L243.411 31.7189L264.815 46.48ZM259.919 40.24L274.341 61.8733L274.613 61.6915L274.881 61.503L259.919 40.24ZM254.927 44.848L234.953 28.2032L234.953 28.2032L254.927 44.848ZM250.607 51.184L227.878 38.5573L227.878 38.5573L250.607 51.184ZM252.431 48.224C252.833 48.224 254.287 48.2735 256.307 49.0201C258.472 49.8201 260.818 51.2563 262.811 53.4424L224.386 88.4776C232.762 97.6644 243.717 100.224 252.431 100.224V48.224ZM262.837 53.4705C264.091 54.8497 265.154 56.5576 265.856 58.4749C266.543 60.3528 266.718 61.9786 266.718 63.088H214.718C214.718 72.0004 217.645 81.0634 224.36 88.4495L262.837 53.4705ZM266.718 63.088C266.718 64.4981 266.369 65.0297 266.629 64.4392L219.032 43.4968C216.476 49.3063 214.718 55.9179 214.718 63.088H266.718ZM266.451 64.8335C266.908 63.8396 267.552 62.7924 268.49 61.6776L228.691 28.2104C224.893 32.7276 221.697 37.6964 219.21 43.1025L266.451 64.8335ZM268.268 61.9381C269.088 60.9889 269.664 60.5854 269.935 60.4228L243.182 15.8332C237.693 19.1266 232.957 23.2671 228.913 27.9499L268.268 61.9381ZM270.294 60.2035C269.901 60.4483 268.053 61.44 265.103 61.44V9.44C256.52 9.44 248.976 12.2237 242.823 16.0525L270.294 60.2035ZM265.103 61.44C261.782 61.44 258.292 60.4954 255.251 58.5747L283.018 14.6093C277.545 11.1526 271.367 9.44 265.103 9.44V61.44ZM255.758 58.8868C250.942 55.9974 248.007 51.8562 246.502 48.1693C245.151 44.8573 245.055 42.2351 245.055 41.296H297.055C297.055 35.4398 295.481 22.0789 282.511 14.2972L255.758 58.8868ZM245.055 41.296C245.055 39.8419 245.282 38.3563 245.735 36.9363C246.184 35.5328 246.777 34.4295 247.311 33.64L290.382 62.776C294.519 56.6606 297.055 49.3412 297.055 41.296H245.055ZM247.213 33.7858C247.822 32.872 248.334 32.5283 248.234 32.599L278.131 75.145C282.767 71.8877 287.055 67.768 290.48 62.6302L247.213 33.7858ZM247.96 32.7943C247.571 33.075 246.998 33.4126 246.132 33.7472L264.873 82.2528C269.639 80.4114 274.186 77.997 278.405 74.9497L247.96 32.7943ZM246.435 33.6322C245.693 33.9084 245.176 34.0004 244.838 34.0318L249.655 85.8082C254.821 85.3276 259.808 84.1396 264.57 82.3678L246.435 33.6322ZM221.751 54.821C221.494 56.108 221.274 57.4633 221.118 58.8728L272.799 64.6152C272.771 64.8727 272.743 65.012 272.742 65.019L221.751 54.821ZM221.118 58.8728C220.961 60.2803 220.863 61.7894 220.863 63.376H272.863C272.863 63.9386 272.828 64.3597 272.799 64.6152L221.118 58.8728ZM220.863 63.376C220.863 66.0818 221.134 68.7494 221.655 71.355L272.646 61.157C272.783 61.8426 272.863 62.5902 272.863 63.376H220.863ZM222.028 72.9552C223.071 76.865 224.772 80.4938 227.022 83.7435L269.775 54.1445C270.873 55.7302 271.742 57.567 272.273 59.5568L222.028 72.9552ZM227.599 84.544C230.997 89.0747 235.283 92.2642 239.707 94.3288L261.698 47.2072C264.202 48.3758 266.952 50.3493 269.198 53.344L227.599 84.544ZM240.281 94.5881C245.456 96.8521 250.47 97.44 254.447 97.44V45.44C255.479 45.44 257.997 45.5799 261.124 46.9479L240.281 94.5881ZM254.447 97.44C262.267 97.44 269.39 95.2051 275.506 91.7103L249.707 46.5617C250.447 46.1389 252.13 45.44 254.447 45.44V97.44ZM275.905 91.4776C281.054 88.4128 285.542 84.5976 289.42 80.2891L250.769 45.5029C250.039 46.3144 249.535 46.6592 249.308 46.7944L275.905 91.4776ZM289.42 80.2891C293.199 76.0901 296.403 71.4637 299.01 66.4583L252.891 42.4377C252.298 43.5763 251.598 44.5819 250.769 45.5029L289.42 80.2891ZM260.351 75.248L261.503 76.112L292.702 34.512L291.55 33.648L260.351 75.248ZM253.393 44.6425C252.775 46.0143 252.164 46.8274 251.671 47.3436L289.286 83.2484C294.169 78.1326 297.974 72.2897 300.812 65.9815L253.393 44.6425ZM251.457 47.5711C250.775 48.3022 250.41 48.4705 250.402 48.4744L273.275 95.1736C279.539 92.1055 284.934 87.9218 289.5 83.0209L251.457 47.5711ZM249.828 48.7642C249.942 48.7052 250.256 48.5582 250.756 48.4308C251.264 48.3012 251.838 48.224 252.431 48.224V100.224C260.151 100.224 267.381 98.2525 273.849 94.8838L249.828 48.7642ZM255.948 82.7618C259.156 81.6925 262.274 80.3232 265.21 78.8551L241.955 32.3449C240.539 33.0528 239.753 33.3475 239.505 33.4302L255.948 82.7618ZM265.748 78.5785C269.266 76.7158 272.599 74.558 275.739 72.1268L243.906 31.0092C243.078 31.65 242.251 32.1802 241.417 32.6215L265.748 78.5785ZM275.423 72.368C279.419 69.371 283.143 65.7003 286.218 61.2411L243.411 31.7189C243.926 30.9717 244.322 30.693 244.223 30.768L275.423 72.368ZM285.873 61.7292C290.03 55.9892 292.831 48.7926 292.831 40.624H240.831C240.831 36.5514 242.287 33.2588 243.756 31.2308L285.873 61.7292ZM292.831 40.624C292.831 37.3007 292.315 30.9226 288.08 24.5698L244.813 53.4142C241.09 47.8294 240.831 42.5392 240.831 40.624H292.831ZM288.08 24.5698C280.168 12.7014 267.534 12.416 264.815 12.416V64.416C263.472 64.416 260.636 64.2928 257.193 63.0777C253.506 61.7765 248.514 58.9658 244.813 53.4142L288.08 24.5698ZM264.815 12.416C256.248 12.416 249.46 15.8073 244.956 18.977L274.881 61.503C273.833 62.2407 270.309 64.416 264.815 64.416V12.416ZM245.496 18.6067C241.315 21.394 237.84 24.739 234.953 28.2032L274.9 61.4928C275.049 61.3147 275.09 61.2866 275.01 61.3609C274.928 61.4365 274.709 61.6278 274.341 61.8733L245.496 18.6067ZM234.953 28.2032C232.256 31.4394 229.906 34.9078 227.878 38.5573L273.335 63.8107C273.867 62.8522 274.397 62.0966 274.9 61.4928L234.953 28.2032ZM227.878 38.5573C225.703 42.4721 223.916 46.6697 222.675 51.1373L272.778 65.0547C272.817 64.9143 272.95 64.5039 273.335 63.8107L227.878 38.5573ZM306.553 46.384L290.59 66.9071L291.83 67.871L293.176 68.6788L306.553 46.384ZM307.513 41.584L294.136 19.2892L293.881 19.4423L293.629 19.6013L307.513 41.584ZM313.081 40.912L297.969 62.069L297.969 62.0691L313.081 40.912ZM312.217 45.616L329.338 65.183L329.674 64.8892L329.999 64.584L312.217 45.616ZM300.793 70.288L315.703 48.988L315.461 48.8186L315.215 48.6547L300.793 70.288ZM301.753 65.584L288.376 43.2892L288.121 43.4423L287.869 43.6013L301.753 65.584ZM307.321 64.912L322.433 43.7549L322.433 43.7549L307.321 64.912ZM306.457 69.616L323.578 89.183L323.914 88.8892L324.239 88.584L306.457 69.616ZM308.761 20.96C312.086 20.96 316.078 21.7781 319.93 24.0892L293.176 68.6788C298.308 71.7579 303.772 72.96 308.761 72.96V20.96ZM322.515 25.8609C325.706 28.3429 328.217 31.6031 329.803 35.3021C331.321 38.8447 331.689 42.0681 331.689 44.368H279.689C279.689 51.2607 282.237 60.41 290.59 66.9071L322.515 25.8609ZM331.689 44.368C331.689 48.991 330.305 53.4229 327.893 57.1047C325.649 60.5287 323.039 62.5294 321.397 63.5667L293.629 19.6013C287.597 23.4111 279.689 31.552 279.689 44.368H331.689ZM320.89 63.8788C319.046 64.9851 315.719 66.432 311.257 66.432V14.432C304.363 14.432 298.54 16.6469 294.136 19.2892L320.89 63.8788ZM311.257 66.432C308.685 66.432 303.365 65.9235 297.969 62.069L328.193 19.755C321.901 15.2605 315.364 14.432 311.257 14.432V66.432ZM297.969 62.0691C288.174 55.0732 287.753 44.9153 287.753 42.736H339.753C339.753 38.7647 338.883 27.3908 328.193 19.7549L297.969 62.0691ZM287.753 42.736C287.753 33.7343 292.658 28.3129 294.434 26.648L329.999 64.584C333.823 60.9991 339.753 53.6577 339.753 42.736H287.753ZM295.096 26.049C296.63 24.7064 298.65 23.3686 301.161 22.3919C303.696 21.406 306.294 20.96 308.761 20.96V72.96C316.757 72.96 323.899 69.942 329.338 65.183L295.096 26.049ZM303.001 44.96C307.137 44.96 311.682 46.1733 315.703 48.988L285.883 91.588C291.184 95.2987 297.201 96.96 303.001 96.96V44.96ZM315.215 48.6547C319.05 51.2115 322.023 54.781 323.855 58.8505C325.577 62.6769 325.929 66.1183 325.929 68.368H273.929C273.929 75.0917 276.464 85.3171 286.371 91.9213L315.215 48.6547ZM325.929 68.368C325.929 72.991 324.545 77.4229 322.133 81.1047C319.889 84.5287 317.279 86.5294 315.637 87.5667L287.869 43.6013C281.837 47.4111 273.929 55.552 273.929 68.368H325.929ZM315.13 87.8788C313.286 88.9851 309.959 90.432 305.497 90.432V38.432C298.603 38.432 292.78 40.6469 288.376 43.2892L315.13 87.8788ZM305.497 90.432C302.925 90.432 297.605 89.9235 292.209 86.0691L322.433 43.7549C316.141 39.2605 309.604 38.432 305.497 38.432V90.432ZM292.209 86.0691C282.414 79.0732 281.993 68.9153 281.993 66.736H333.993C333.993 62.7647 333.123 51.3908 322.433 43.7549L292.209 86.0691ZM281.993 66.736C281.993 57.7343 286.898 52.3129 288.674 50.648L324.239 88.584C328.063 84.9991 333.993 77.6577 333.993 66.736H281.993ZM289.336 50.049C290.87 48.7064 292.89 47.3686 295.401 46.3919C297.936 45.406 300.534 44.96 303.001 44.96V96.96C310.997 96.96 318.139 93.942 323.578 89.183L289.336 50.049ZM315.943 78.352L308.801 103.352L312.302 104.352H315.943V78.352ZM314.791 77.488L335.949 62.3758L335.28 61.4403L334.532 60.5674L314.791 77.488ZM313.831 76.048L298.921 54.748L280.545 67.6118L290.576 87.6756L313.831 76.048ZM326.12 63.856L346.984 79.3703L326.12 63.856ZM335.048 46.48L310.478 37.9751L310.454 38.0449L310.43 38.1148L335.048 46.48ZM337.16 12.592L311.713 17.9276L311.763 18.1683L311.818 18.408L337.16 12.592ZM331.688 0.879997L338.212 -24.2879L267.556 -42.6063L310.721 16.2555L331.688 0.879997ZM336.968 5.008L316.444 20.9704L316.691 21.2873L316.947 21.5965L336.968 5.008ZM341.576 14.224L366.399 6.49202L366.399 6.49202L341.576 14.224ZM341.192 44.56L316.204 37.376L316.174 37.4803L316.145 37.5849L341.192 44.56ZM335.624 58.384L312.879 45.787L312.845 45.8479L312.812 45.9089L335.624 58.384ZM328.424 69.04L308.623 52.1889L308.518 52.3124L308.415 52.4371L328.424 69.04ZM321.32 75.952L336.432 97.1091L336.432 97.1091L321.32 75.952ZM323.086 53.3524C329.277 55.1213 333.496 58.9427 335.949 62.3758L293.634 92.6002C296.727 96.9293 301.714 101.327 308.801 103.352L323.086 53.3524ZM334.532 60.5674C335.489 61.6836 336.363 62.9732 337.087 64.4204L290.576 87.6756C291.812 90.1468 293.326 92.3964 295.051 94.4086L334.532 60.5674ZM328.742 97.348C335.793 92.4119 341.835 86.2946 346.984 79.3703L305.255 48.3417C302.98 51.4014 300.83 53.4121 298.921 54.748L328.742 97.348ZM346.984 79.3703C352.491 71.9633 356.656 63.6992 359.665 54.8452L310.43 38.1148C308.959 42.4448 307.172 45.7647 305.255 48.3417L346.984 79.3703ZM359.617 54.9849C362.994 45.2287 364.504 34.946 364.504 24.4H312.504C312.504 29.982 311.709 34.4193 310.478 37.9751L359.617 54.9849ZM364.504 24.4C364.504 18.4562 363.83 12.5695 362.501 6.776L311.818 18.408C312.281 20.4225 312.504 22.4078 312.504 24.4H364.504ZM362.606 7.25641C360.892 -0.917712 357.283 -8.18286 352.654 -14.4955L310.721 16.2555C311.724 17.6229 311.763 18.1657 311.713 17.9276L362.606 7.25641ZM325.163 26.0479C321.825 25.1826 319.534 23.7042 318.29 22.731C317.064 21.7729 316.484 21.0214 316.444 20.9704L357.491 -10.9545C354.235 -15.1401 348.044 -21.7391 338.212 -24.2879L325.163 26.0479ZM316.947 21.5965C316.673 21.2663 316.492 21.0024 316.386 20.8369C316.281 20.6719 316.242 20.5914 316.256 20.6196C316.27 20.6476 316.328 20.7664 316.417 20.9933C316.507 21.2198 316.621 21.5366 316.752 21.956L366.399 6.49202C364.554 0.568434 361.694 -5.90044 356.988 -11.5805L316.947 21.5965ZM316.752 21.956C316.979 22.6859 317.4 24.6121 317.4 28.24H369.4C369.4 20.9879 368.604 13.5701 366.399 6.49202L316.752 21.956ZM317.4 28.24C317.4 31.766 316.952 34.773 316.204 37.376L366.179 51.744C368.375 44.107 369.4 36.234 369.4 28.24H317.4ZM316.145 37.5849C315.226 40.8831 314.103 43.5772 312.879 45.787L358.368 70.981C361.752 64.8708 364.341 58.3489 366.238 51.5351L316.145 37.5849ZM312.812 45.9089C311.275 48.7199 309.848 50.7507 308.623 52.1889L348.224 85.8911C352.119 81.3133 355.492 76.2401 358.435 70.8591L312.812 45.9089ZM308.415 52.4371C307.653 53.3553 307.06 53.9843 306.644 54.3891C306.222 54.8004 306.072 54.8914 306.207 54.7949L336.432 97.1091C341.077 93.7907 345.053 89.7157 348.432 85.6429L308.415 52.4371ZM306.207 54.7949C305.984 54.9545 306.515 54.5381 307.697 54.0104C308.726 53.5507 311.684 52.352 315.943 52.352V104.352C326.01 104.352 333.583 99.1439 336.432 97.1091L306.207 54.7949Z" fill="black"/>
</svg>
